  0
SECTION
  2
HEADER
  9
$ACADVER
  1
AC1015
  9
$ACADMAINTVER
 70
    13
  9
$DWGCODEPAGE
  3
ANSI_1252
  9
$INSBASE
 10
0.0
 20
0.0
 30
0.0
  9
$EXTMIN
 10
-2.455021545734553
 20
-5.029810314359679
 30
-0.0015258207003583
  9
$EXTMAX
 10
117.2091204635858
 20
76.50522053007915
 30
0.0000000349246037
  9
$LIMMIN
 10
0.0
 20
0.0
  9
$LIMMAX
 10
12.0
 20
9.0
  9
$ORTHOMODE
 70
     0
  9
$REGENMODE
 70
     1
  9
$FILLMODE
 70
     1
  9
$QTEXTMODE
 70
     0
  9
$MIRRTEXT
 70
     1
  9
$LTSCALE
 40
1.0
  9
$ATTMODE
 70
     1
  9
$TEXTSIZE
 40
0.2
  9
$TRACEWID
 40
0.05
  9
$TEXTSTYLE
  7
Standard
  9
$CLAYER
  8
ceco.net 431 FIFA futbol soccer field
  9
$CELTYPE
  6
ByLayer
  9
$CECOLOR
 62
   256
  9
$CELTSCALE
 40
1.0
  9
$DISPSILH
 70
     0
  9
$DIMSCALE
 40
1.0
  9
$DIMASZ
 40
0.18
  9
$DIMEXO
 40
0.0625
  9
$DIMDLI
 40
0.38
  9
$DIMRND
 40
0.0
  9
$DIMDLE
 40
0.0
  9
$DIMEXE
 40
0.18
  9
$DIMTP
 40
0.0
  9
$DIMTM
 40
0.0
  9
$DIMTXT
 40
0.18
  9
$DIMCEN
 40
0.09
  9
$DIMTSZ
 40
0.0
  9
$DIMTOL
 70
     0
  9
$DIMLIM
 70
     0
  9
$DIMTIH
 70
     1
  9
$DIMTOH
 70
     1
  9
$DIMSE1
 70
     0
  9
$DIMSE2
 70
     0
  9
$DIMTAD
 70
     0
  9
$DIMZIN
 70
     0
  9
$DIMBLK
  1

  9
$DIMASO
 70
     1
  9
$DIMSHO
 70
     1
  9
$DIMPOST
  1

  9
$DIMAPOST
  1

  9
$DIMALT
 70
     0
  9
$DIMALTD
 70
     2
  9
$DIMALTF
 40
25.4
  9
$DIMLFAC
 40
1.0
  9
$DIMTOFL
 70
     0
  9
$DIMTVP
 40
0.0
  9
$DIMTIX
 70
     0
  9
$DIMSOXD
 70
     0
  9
$DIMSAH
 70
     0
  9
$DIMBLK1
  1

  9
$DIMBLK2
  1

  9
$DIMSTYLE
  2
Standard
  9
$DIMCLRD
 70
     0
  9
$DIMCLRE
 70
     0
  9
$DIMCLRT
 70
     0
  9
$DIMTFAC
 40
1.0
  9
$DIMGAP
 40
0.09
  9
$DIMJUST
 70
     0
  9
$DIMSD1
 70
     0
  9
$DIMSD2
 70
     0
  9
$DIMTOLJ
 70
     1
  9
$DIMTZIN
 70
     0
  9
$DIMALTZ
 70
     0
  9
$DIMALTTZ
 70
     0
  9
$DIMUPT
 70
     0
  9
$DIMDEC
 70
     4
  9
$DIMTDEC
 70
     4
  9
$DIMALTU
 70
     2
  9
$DIMALTTD
 70
     2
  9
$DIMTXSTY
  7
Standard
  9
$DIMAUNIT
 70
     0
  9
$DIMADEC
 70
     0
  9
$DIMALTRND
 40
0.0
  9
$DIMAZIN
 70
     0
  9
$DIMDSEP
 70
    46
  9
$DIMATFIT
 70
     3
  9
$DIMFRAC
 70
     0
  9
$DIMLDRBLK
  1

  9
$DIMLUNIT
 70
     2
  9
$DIMLWD
 70
    -2
  9
$DIMLWE
 70
    -2
  9
$DIMTMOVE
 70
     0
  9
$LUNITS
 70
     2
  9
$LUPREC
 70
     2
  9
$SKETCHINC
 40
0.1
  9
$FILLETRAD
 40
0.5
  9
$AUNITS
 70
     0
  9
$AUPREC
 70
     0
  9
$MENU
  1
.
  9
$ELEVATION
 40
0.0
  9
$PELEVATION
 40
0.0
  9
$THICKNESS
 40
0.0
  9
$LIMCHECK
 70
     0
  9
$CHAMFERA
 40
0.5
  9
$CHAMFERB
 40
0.5
  9
$CHAMFERC
 40
1.0
  9
$CHAMFERD
 40
0.0
  9
$SKPOLY
 70
     0
  9
$TDCREATE
 40
2455079.813234954
  9
$TDUCREATE
 40
2455079.938234953
  9
$TDUPDATE
 40
2458331.779197430
  9
$TDUUPDATE
 40
2458331.904197430
  9
$TDINDWG
 40
0.0188026852
  9
$TDUSRTIMER
 40
0.0188025000
  9
$USRTIMER
 70
     1
  9
$ANGBASE
 50
0.0
  9
$ANGDIR
 70
     0
  9
$PDMODE
 70
     0
  9
$PDSIZE
 40
0.0
  9
$PLINEWID
 40
0.0
  9
$SPLFRAME
 70
     0
  9
$SPLINETYPE
 70
     6
  9
$SPLINESEGS
 70
     8
  9
$HANDSEED
  5
DA2
  9
$SURFTAB1
 70
     6
  9
$SURFTAB2
 70
     6
  9
$SURFTYPE
 70
     6
  9
$SURFU
 70
     6
  9
$SURFV
 70
     6
  9
$UCSBASE
  2

  9
$UCSNAME
  2

  9
$UCSORG
 10
0.0
 20
0.0
 30
0.0
  9
$UCSXDIR
 10
1.0
 20
0.0
 30
0.0
  9
$UCSYDIR
 10
0.0
 20
1.0
 30
0.0
  9
$UCSORTHOREF
  2

  9
$UCSORTHOVIEW
 70
     0
  9
$UCSORGTOP
 10
0.0
 20
0.0
 30
0.0
  9
$UCSORGBOTTOM
 10
0.0
 20
0.0
 30
0.0
  9
$UCSORGLEFT
 10
0.0
 20
0.0
 30
0.0
  9
$UCSORGRIGHT
 10
0.0
 20
0.0
 30
0.0
  9
$UCSORGFRONT
 10
0.0
 20
0.0
 30
0.0
  9
$UCSORGBACK
 10
0.0
 20
0.0
 30
0.0
  9
$PUCSBASE
  2

  9
$PUCSNAME
  2

  9
$PUCSORG
 10
0.0
 20
0.0
 30
0.0
  9
$PUCSXDIR
 10
1.0
 20
0.0
 30
0.0
  9
$PUCSYDIR
 10
0.0
 20
1.0
 30
0.0
  9
$PUCSORTHOREF
  2

  9
$PUCSORTHOVIEW
 70
     0
  9
$PUCSORGTOP
 10
0.0
 20
0.0
 30
0.0
  9
$PUCSORGBOTTOM
 10
0.0
 20
0.0
 30
0.0
  9
$PUCSORGLEFT
 10
0.0
 20
0.0
 30
0.0
  9
$PUCSORGRIGHT
 10
0.0
 20
0.0
 30
0.0
  9
$PUCSORGFRONT
 10
0.0
 20
0.0
 30
0.0
  9
$PUCSORGBACK
 10
0.0
 20
0.0
 30
0.0
  9
$USERI1
 70
     0
  9
$USERI2
 70
     0
  9
$USERI3
 70
     0
  9
$USERI4
 70
     0
  9
$USERI5
 70
     0
  9
$USERR1
 40
0.0
  9
$USERR2
 40
0.0
  9
$USERR3
 40
0.0
  9
$USERR4
 40
0.0
  9
$USERR5
 40
0.0
  9
$WORLDVIEW
 70
     1
  9
$SHADEDGE
 70
     3
  9
$SHADEDIF
 70
    70
  9
$TILEMODE
 70
     1
  9
$MAXACTVP
 70
    64
  9
$PINSBASE
 10
0.0
 20
0.0
 30
0.0
  9
$PLIMCHECK
 70
     0
  9
$PEXTMIN
 10
1.129416694791297
 20
0.7870833066504775
 30
0.0
  9
$PEXTMAX
 10
10.16475025312168
 20
7.083749759854294
 30
0.0
  9
$PLIMMIN
 10
-0.1979161059762549
 20
-0.1979166691697489
  9
$PLIMMAX
 10
11.49208369217519
 20
8.068749773220753
  9
$UNITMODE
 70
     0
  9
$VISRETAIN
 70
     1
  9
$PLINEGEN
 70
     0
  9
$PSLTSCALE
 70
     1
  9
$TREEDEPTH
 70
  3020
  9
$CMLSTYLE
  2
Standard
  9
$CMLJUST
 70
     0
  9
$CMLSCALE
 40
1.0
  9
$PROXYGRAPHICS
 70
     1
  9
$MEASUREMENT
 70
     0
  9
$CELWEIGHT
370
    -1
  9
$ENDCAPS
280
     0
  9
$JOINSTYLE
280
     0
  9
$LWDISPLAY
290
     0
  9
$INSUNITS
 70
    10
  9
$HYPERLINKBASE
  1

  9
$STYLESHEET
  1

  9
$XEDIT
290
     1
  9
$CEPSNTYPE
380
     0
  9
$PSTYLEMODE
290
     1
  9
$FINGERPRINTGUID
  2
{00FA7E3D-5454-4919-943F-2E31E774FFC2}
  9
$VERSIONGUID
  2
{BA303761-EACA-43DE-BED1-BB10D326DA67}
  9
$EXTNAMES
290
     1
  9
$PSVPSCALE
 40
0.0
  9
$OLESTARTUP
290
     0
  0
ENDSEC
  0
SECTION
  2
CLASSES
  0
CLASS
  1
ACDBDICTIONARYWDFLT
  2
AcDbDictionaryWithDefault
  3
AutoCAD 2000
 90
        0
280
     0
281
     0
  0
CLASS
  1
ACDBPLACEHOLDER
  2
AcDbPlaceHolder
  3
AutoCAD 2000
 90
        0
280
     0
281
     0
  0
CLASS
  1
LAYOUT
  2
AcDbLayout
  3
AutoCAD 2000
 90
        0
280
     0
281
     0
  0
CLASS
  1
DICTIONARYVAR
  2
AcDbDictionaryVar
  3
AutoCAD 2000
 90
        0
280
     0
281
     0
  0
ENDSEC
  0
SECTION
  2
TABLES
  0
TABLE
  2
VPORT
  5
8
330
0
100
AcDbSymbolTable
 70
     3
  0
VPORT
  5
DA1
330
8
100
AcDbSymbolTableRecord
100
AcDbViewportTableRecord
  2
*Active
 70
     0
 10
0.0
 20
0.0
 11
1.0
 21
1.0
 12
57.37704945892563
 22
35.73770510785974
 13
0.0
 23
0.0
 14
0.5
 24
0.5
 15
0.5
 25
0.5
 16
0.0
 26
0.0
 36
1.0
 17
0.0
 27
0.0
 37
0.0
 40
82.13308730540049
 41
2.25703794369645
 42
50.0
 43
0.0
 44
0.0
 50
0.0
 51
0.0
 71
     0
 72
   100
 73
     1
 74
     3
 75
     0
 76
     0
 77
     0
 78
     0
281
     0
 65
     1
110
0.0
120
0.0
130
0.0
111
1.0
121
0.0
131
0.0
112
0.0
122
1.0
132
0.0
 79
     0
146
0.0
  0
ENDTAB
  0
TABLE
  2
LTYPE
  5
5
330
0
100
AcDbSymbolTable
 70
     1
  0
LTYPE
  5
14
330
5
100
AcDbSymbolTableRecord
100
AcDbLinetypeTableRecord
  2
ByBlock
 70
     0
  3

 72
    65
 73
     0
 40
0.0
  0
LTYPE
  5
15
330
5
100
AcDbSymbolTableRecord
100
AcDbLinetypeTableRecord
  2
ByLayer
 70
     0
  3

 72
    65
 73
     0
 40
0.0
  0
LTYPE
  5
16
330
5
100
AcDbSymbolTableRecord
100
AcDbLinetypeTableRecord
  2
Continuous
 70
     0
  3
Solid line
 72
    65
 73
     0
 40
0.0
  0
ENDTAB
  0
TABLE
  2
LAYER
  5
2
330
0
100
AcDbSymbolTable
 70
     4
  0
LAYER
  5
10
330
2
100
AcDbSymbolTableRecord
100
AcDbLayerTableRecord
  2
0
 70
     0
 62
     7
  6
Continuous
370
    -3
390
F
  0
LAYER
  5
B2A
102
{ACAD_XDICTIONARY
360
B2B
102
}
330
2
100
AcDbSymbolTableRecord
100
AcDbLayerTableRecord
  2
ceco.net 431 Goal net
 70
     0
 62
     8
  6
Continuous
370
    -3
390
F
1001
AcAecLayerStandard
1000

1000

  0
LAYER
  5
B2D
102
{ACAD_XDICTIONARY
360
B2E
102
}
330
2
100
AcDbSymbolTableRecord
100
AcDbLayerTableRecord
  2
ceco.net 431 tecnical area
 70
     0
 62
     8
  6
Continuous
370
    -3
390
F
1001
AcAecLayerStandard
1000

1000

  0
LAYER
  5
B30
102
{ACAD_XDICTIONARY
360
B31
102
}
330
2
100
AcDbSymbolTableRecord
100
AcDbLayerTableRecord
  2
ceco.net 431 FIFA futbol soccer field
 70
     0
 62
   250
  6
Continuous
370
    -3
390
F
1001
AcAecLayerStandard
1000

1000

  0
ENDTAB
  0
TABLE
  2
STYLE
  5
3
330
0
100
AcDbSymbolTable
 70
     1
  0
STYLE
  5
11
330
3
100
AcDbSymbolTableRecord
100
AcDbTextStyleTableRecord
  2
Standard
 70
     0
 40
0.0
 41
1.0
 50
0.0
 71
     0
 42
0.2
  3
txt
  4

  0
ENDTAB
  0
TABLE
  2
VIEW
  5
6
330
0
100
AcDbSymbolTable
 70
     0
  0
ENDTAB
  0
TABLE
  2
UCS
  5
7
330
0
100
AcDbSymbolTable
 70
     0
  0
ENDTAB
  0
TABLE
  2
APPID
  5
9
330
0
100
AcDbSymbolTable
 70
     7
  0
APPID
  5
12
330
9
100
AcDbSymbolTableRecord
100
AcDbRegAppTableRecord
  2
ACAD
 70
     0
  0
APPID
  5
2C
330
9
100
AcDbSymbolTableRecord
100
AcDbRegAppTableRecord
  2
ACAD_DSTYLE_DIMJOGGED_JOGANGLE_SYMBOL
 70
     0
  0
APPID
  5
11D
330
9
100
AcDbSymbolTableRecord
100
AcDbRegAppTableRecord
  2
ACAD_NAV_VCDISPLAY
 70
     0
  0
APPID
  5
11E
330
9
100
AcDbSymbolTableRecord
100
AcDbRegAppTableRecord
  2
ACAD_MLEADERVER
 70
     0
  0
APPID
  5
B34
330
9
100
AcDbSymbolTableRecord
100
AcDbRegAppTableRecord
  2
ACAD_PSEXT
 70
     0
  0
APPID
  5
B35
330
9
100
AcDbSymbolTableRecord
100
AcDbRegAppTableRecord
  2
ACAD_EXEMPT_FROM_CAD_STANDARDS
 70
     0
  0
APPID
  5
B36
330
9
100
AcDbSymbolTableRecord
100
AcDbRegAppTableRecord
  2
AcAecLayerStandard
 70
     0
  0
ENDTAB
  0
TABLE
  2
DIMSTYLE
  5
A
330
0
100
AcDbSymbolTable
 70
     2
100
AcDbDimStyleTable
 71
     0
  0
DIMSTYLE
105
27
330
A
100
AcDbSymbolTableRecord
100
AcDbDimStyleTableRecord
  2
Standard
 70
     0
340
11
  0
ENDTAB
  0
TABLE
  2
BLOCK_RECORD
  5
1
330
0
100
AcDbSymbolTable
 70
     1
  0
BLOCK_RECORD
  5
1F
330
1
100
AcDbSymbolTableRecord
100
AcDbBlockTableRecord
  2
*Model_Space
340
22
  0
BLOCK_RECORD
  5
B1C
330
1
100
AcDbSymbolTableRecord
100
AcDbBlockTableRecord
  2
*Paper_Space
340
B1D
  0
ENDTAB
  0
ENDSEC
  0
SECTION
  2
BLOCKS
  0
BLOCK
  5
20
330
1F
100
AcDbEntity
  8
0
100
AcDbBlockBegin
  2
*Model_Space
 70
     0
 10
0.0
 20
0.0
 30
0.0
  3
*Model_Space
  1

  0
ENDBLK
  5
21
330
1F
100
AcDbEntity
  8
0
100
AcDbBlockEnd
  0
BLOCK
  5
B1E
330
B1C
100
AcDbEntity
 67
     1
  8
0
100
AcDbBlockBegin
  2
*Paper_Space
 70
     0
 10
0.0
 20
0.0
 30
0.0
  3
*Paper_Space
  1

  0
ENDBLK
  5
B1F
330
B1C
100
AcDbEntity
 67
     1
  8
0
100
AcDbBlockEnd
  0
ENDSEC
  0
SECTION
  2
ENTITIES
  0
LINE
  5
C6D
330
1F
100
AcDbEntity
  8
ceco.net 431 FIFA futbol soccer field
100
AcDbLine
 10
0.0
 20
0.0
 30
0.0
 11
10.0
 21
0.0
 31
0.0
  0
LINE
  5
C6E
330
1F
100
AcDbEntity
  8
ceco.net 431 FIFA futbol soccer field
100
AcDbLine
 10
0.0
 20
74.31693989071037
 30
0.0
 11
10.0
 21
74.31693989071037
 31
0.0
  0
LINE
  5
C6F
330
1F
100
AcDbEntity
  8
ceco.net 431 FIFA futbol soccer field
100
AcDbLine
 10
0.0
 20
74.31693989071037
 30
0.0
 11
-0.0000000000000018
 21
64.31693989071037
 31
0.0
  0
CIRCLE
  5
C70
330
1F
100
AcDbEntity
  8
ceco.net 431 FIFA futbol soccer field
100
AcDbCircle
 10
57.37704918032786
 20
37.15846994535518
 30
0.0
 40
10.0
  0
ARC
  5
C71
330
1F
100
AcDbEntity
  8
ceco.net 431 FIFA futbol soccer field
100
AcDbCircle
 10
57.37704918032786
 20
37.15846994535518
 30
0.0
 40
0.3278688524590164
100
AcDbArc
 50
101.5369590328159
 51
258.4630409671853
  0
LINE
  5
C72
330
1F
100
AcDbEntity
  8
ceco.net 431 FIFA futbol soccer field
100
AcDbLine
 10
0.1311475409836065
 20
74.18579234972677
 30
0.0
 11
0.9527647964023467
 21
74.18579234972677
 31
0.0
  0
LINE
  5
C73
330
1F
100
AcDbEntity
  8
ceco.net 431 FIFA futbol soccer field
100
AcDbLine
 10
0.1311475409836065
 20
74.18579234972677
 30
0.0
 11
0.1311475409836064
 21
73.36417509430804
 31
0.0
  0
LINE
  5
C74
330
1F
100
AcDbEntity
  8
ceco.net 431 FIFA futbol soccer field
100
AcDbLine
 10
0.1311475409835929
 20
0.1311475409836065
 30
0.0
 11
0.9527647964023328
 21
0.1311475409836065
 31
0.0
  0
CIRCLE
  5
C75
330
1F
100
AcDbEntity
  8
ceco.net 431 FIFA futbol soccer field
100
AcDbCircle
 10
57.37704918032786
 20
37.15846994535518
 30
0.0
 40
10.1311475409836
  0
CIRCLE
  5
C76
330
1F
100
AcDbEntity
  8
ceco.net 431 FIFA futbol soccer field
100
AcDbCircle
 10
12.15300546448086
 20
37.15846994535518
 30
0.0
 40
0.3278688524590164
  0
ARC
  5
C77
330
1F
100
AcDbEntity
  8
ceco.net 431 FIFA futbol soccer field
100
AcDbCircle
 10
12.15300546448086
 20
37.15846994535518
 30
0.0
 40
10.0
100
AcDbArc
 50
306.9482107330499
 51
53.05178926694999
  0
LINE
  5
C78
330
1F
100
AcDbEntity
  8
ceco.net 431 FIFA futbol soccer field
100
AcDbLine
 10
18.1639344262295
 20
59.18032786885245
 30
0.0
 11
18.1639344262295
 21
45.31376782550583
 31
0.0
  0
LINE
  5
C79
330
1F
100
AcDbEntity
  8
ceco.net 431 FIFA futbol soccer field
100
AcDbLine
 10
18.1639344262295
 20
59.18032786885245
 30
0.0
 11
0.1311475409836038
 21
59.18032786885245
 31
0.0
  0
LINE
  5
C7A
330
1F
100
AcDbEntity
  8
ceco.net 431 FIFA futbol soccer field
100
AcDbLine
 10
18.16393442622949
 20
15.13661202185792
 30
0.0
 11
0.131147540983596
 21
15.13661202185792
 31
0.0
  0
LINE
  5
C7B
330
1F
100
AcDbEntity
  8
ceco.net 431 FIFA futbol soccer field
100
AcDbLine
 10
18.03278688524589
 20
59.04918032786884
 30
0.0
 11
0.1311475409836038
 21
59.04918032786884
 31
0.0
  0
LINE
  5
C7C
330
1F
100
AcDbEntity
  8
ceco.net 431 FIFA futbol soccer field
100
AcDbLine
 10
18.03278688524589
 20
59.04918032786884
 30
0.0
 11
18.03278688524589
 21
15.26775956284153
 31
0.0
  0
ARC
  5
C7D
330
1F
100
AcDbEntity
  8
ceco.net 431 FIFA futbol soccer field
100
AcDbCircle
 10
12.15300546448086
 20
37.15846994535518
 30
0.0
 40
10.1311475409836
100
AcDbArc
 50
306.3923745280061
 51
53.60762547199379
  0
LINE
  5
C7E
330
1F
100
AcDbEntity
  8
ceco.net 431 FIFA futbol soccer field
100
AcDbLine
 10
18.03278688524589
 20
15.26775956284153
 30
0.0
 11
0.131147540983596
 21
15.26775956284152
 31
0.0
  0
LINE
  5
C7F
330
1F
100
AcDbEntity
  8
ceco.net 431 FIFA futbol soccer field
100
AcDbLine
 10
0.1311475409835956
 20
15.13661202185792
 30
0.0
 11
0.1311475409835931
 21
1.084998788720513
 31
0.0
  0
LINE
  5
C80
330
1F
100
AcDbEntity
  8
ceco.net 431 FIFA futbol soccer field
100
AcDbLine
 10
18.16393442622949
 20
29.00317206520454
 30
0.0
 11
18.16393442622949
 21
15.13661202185792
 31
0.0
  0
LINE
  5
C81
330
1F
100
AcDbEntity
  8
ceco.net 431 FIFA futbol soccer field
100
AcDbLine
 10
18.1639344262295
 20
45.15026154779398
 30
0.0
 11
18.16393442622949
 21
29.16667834291638
 31
0.0
  0
LINE
  5
C82
330
1F
100
AcDbEntity
  8
ceco.net 431 FIFA futbol soccer field
100
AcDbLine
 10
0.1311475409836038
 20
59.04918032786885
 30
0.0
 11
0.1311475409835956
 21
15.26775956284152
 31
0.0
  0
ARC
  5
C83
330
1F
100
AcDbEntity
  8
ceco.net 431 FIFA futbol soccer field
100
AcDbCircle
 10
0.0
 20
0.0
 30
0.0
 40
1.092896174863387
100
AcDbArc
 50
6.892102579346381
 51
83.10789742065434
  0
ARC
  5
C84
330
1F
100
AcDbEntity
  8
ceco.net 431 FIFA futbol soccer field
100
AcDbCircle
 10
0.0
 20
0.0
 30
0.0
 40
0.9617486338797812
100
AcDbArc
 50
7.837479763084288
 51
82.16252023691652
  0
ARC
  5
C85
330
1F
100
AcDbEntity
  8
ceco.net 431 FIFA futbol soccer field
100
AcDbCircle
 10
0.0000000000000137
 20
74.31693989071037
 30
0.0
 40
1.092896174863387
100
AcDbArc
 50
276.8921025793456
 51
353.1078974206534
  0
ARC
  5
C86
330
1F
100
AcDbEntity
  8
ceco.net 431 FIFA futbol soccer field
100
AcDbCircle
 10
0.0000000000000137
 20
74.31693989071037
 30
0.0
 40
0.9617486338797812
100
AcDbArc
 50
277.8374797630834
 51
352.1625202369154
  0
LINE
  5
C87
330
1F
100
AcDbEntity
  8
ceco.net 431 FIFA futbol soccer field
100
AcDbLine
 10
1.084998788720525
 20
74.18579234972677
 30
0.0
 11
57.31147540983606
 21
74.18579234972677
 31
0.0
  0
LINE
  5
C88
330
1F
100
AcDbEntity
  8
ceco.net 431 FIFA futbol soccer field
100
AcDbLine
 10
0.1311475409836063
 20
73.23194110198986
 30
0.0
 11
0.1311475409836038
 21
59.18032786885245
 31
0.0
  0
LINE
  5
C89
330
1F
100
AcDbEntity
  8
ceco.net 431 FIFA futbol soccer field
100
AcDbLine
 10
1.084998788720511
 20
0.1311475409836065
 30
0.0
 11
57.31147540983606
 21
0.1311475409836065
 31
0.0
  0
LINE
  5
C8A
330
1F
100
AcDbEntity
  8
ceco.net 431 FIFA futbol soccer field
100
AcDbLine
 10
0.1311475409835931
 20
0.9527647964023348
 30
0.0
 11
0.1311475409835929
 21
0.1311475409836065
 31
0.0
  0
LINE
  5
C8B
330
1F
100
AcDbEntity
  8
ceco.net 431 FIFA futbol soccer field
100
AcDbLine
 10
6.142076502732233
 20
47.15846994535518
 30
0.0
 11
6.14207650273223
 21
27.15846994535518
 31
0.0
  0
LINE
  5
C8C
330
1F
100
AcDbEntity
  8
ceco.net 431 FIFA futbol soccer field
100
AcDbLine
 10
6.273224043715837
 20
27.02732240437158
 30
0.0
 11
0.1311475409835978
 21
27.02732240437158
 31
0.0
  0
LINE
  5
C8D
330
1F
100
AcDbEntity
  8
ceco.net 431 FIFA futbol soccer field
100
AcDbLine
 10
6.273224043715839
 20
47.28961748633879
 30
0.0
 11
0.1311475409836016
 21
47.28961748633879
 31
0.0
  0
LINE
  5
C8E
330
1F
100
AcDbEntity
  8
ceco.net 431 FIFA futbol soccer field
100
AcDbLine
 10
6.142076502732231
 20
27.15846994535518
 30
0.0
 11
0.1311475409835978
 21
27.15846994535518
 31
0.0
  0
LINE
  5
C8F
330
1F
100
AcDbEntity
  8
ceco.net 431 FIFA futbol soccer field
100
AcDbLine
 10
6.142076502732234
 20
47.15846994535518
 30
0.0
 11
0.1311475409836016
 21
47.15846994535518
 31
0.0
  0
LINE
  5
C90
330
1F
100
AcDbEntity
  8
ceco.net 431 FIFA futbol soccer field
100
AcDbLine
 10
6.273224043715839
 20
47.28961748633879
 30
0.0
 11
6.273224043715837
 21
27.02732240437158
 31
0.0
  0
LINE
  5
C91
330
1F
100
AcDbEntity
  8
ceco.net 431 FIFA futbol soccer field
100
AcDbLine
 10
10.1311475409836
 20
74.31693989071037
 30
0.0
 11
10.1311475409836
 21
76.50273224043715
 31
0.0
  0
LINE
  5
C92
330
1F
100
AcDbEntity
  8
ceco.net 431 FIFA futbol soccer field
100
AcDbLine
 10
10.0
 20
74.31693989071037
 30
0.0
 11
9.999999999999998
 21
76.50273224043715
 31
0.0
  0
LINE
  5
C93
330
1F
100
AcDbEntity
  8
ceco.net 431 FIFA futbol soccer field
100
AcDbLine
 10
9.999999999999998
 20
76.50273224043715
 30
0.0
 11
10.1311475409836
 21
76.50273224043715
 31
0.0
  0
LINE
  5
C94
330
1F
100
AcDbEntity
  8
ceco.net 431 FIFA futbol soccer field
100
AcDbLine
 10
10.1311475409836
 20
74.31693989071037
 30
0.0
 11
114.7540983606557
 21
74.31693989071037
 31
0.0
  0
LINE
  5
C95
330
1F
100
AcDbEntity
  8
ceco.net 431 FIFA futbol soccer field
100
AcDbLine
 10
9.999999999999998
 20
-2.185792349726775
 30
0.0
 11
10.1311475409836
 21
-2.185792349726775
 31
0.0
  0
LINE
  5
C96
330
1F
100
AcDbEntity
  8
ceco.net 431 FIFA futbol soccer field
100
AcDbLine
 10
10.0
 20
0.0
 30
0.0
 11
9.999999999999998
 21
-2.185792349726775
 31
0.0
  0
LINE
  5
C97
330
1F
100
AcDbEntity
  8
ceco.net 431 FIFA futbol soccer field
100
AcDbLine
 10
10.1311475409836
 20
0.0
 30
0.0
 11
10.1311475409836
 21
-2.185792349726775
 31
0.0
  0
LINE
  5
C98
330
1F
100
AcDbEntity
  8
ceco.net 431 FIFA futbol soccer field
100
AcDbLine
 10
10.1311475409836
 20
0.0
 30
0.0
 11
114.7540983606557
 21
0.0
 31
0.0
  0
LINE
  5
C99
330
1F
100
AcDbEntity
  8
ceco.net 431 FIFA futbol soccer field
100
AcDbLine
 10
-2.185792349726744
 20
64.31693989071037
 30
0.0
 11
-2.185792349726744
 21
64.18579234972677
 31
0.0
  0
LINE
  5
C9A
330
1F
100
AcDbEntity
  8
ceco.net 431 FIFA futbol soccer field
100
AcDbLine
 10
0.0000000000000311
 20
64.31693989071037
 30
0.0
 11
-2.185792349726744
 21
64.31693989071037
 31
0.0
  0
LINE
  5
C9B
330
1F
100
AcDbEntity
  8
ceco.net 431 FIFA futbol soccer field
100
AcDbLine
 10
0.0000000000000311
 20
64.18579234972677
 30
0.0
 11
-2.185792349726744
 21
64.18579234972677
 31
0.0
  0
LINE
  5
C9C
102
{ACAD_REACTORS
330
CAD
102
}
330
1F
100
AcDbEntity
  8
ceco.net 431 FIFA futbol soccer field
100
AcDbLine
 10
-0.0000000000000019
 20
64.18579234972677
 30
0.0
 11
-0.0000000000000118
 21
10.1311475409836
 31
0.0
  0
LINE
  5
C9D
330
1F
100
AcDbEntity
  8
ceco.net 431 FIFA futbol soccer field
100
AcDbLine
 10
-2.185792349726744
 20
10.0
 30
0.0
 11
-2.185792349726744
 21
10.1311475409836
 31
0.0
  0
LINE
  5
C9E
330
1F
100
AcDbEntity
  8
ceco.net 431 FIFA futbol soccer field
100
AcDbLine
 10
0.0000000000000311
 20
9.999999999999998
 30
0.0
 11
-2.185792349726744
 21
10.0
 31
0.0
  0
LINE
  5
C9F
330
1F
100
AcDbEntity
  8
ceco.net 431 FIFA futbol soccer field
100
AcDbLine
 10
0.0000000000000311
 20
10.1311475409836
 30
0.0
 11
-2.185792349726744
 21
10.1311475409836
 31
0.0
  0
LINE
  5
CA0
330
1F
100
AcDbEntity
  8
ceco.net 431 FIFA futbol soccer field
100
AcDbLine
 10
-0.0000000000000118
 20
10.0
 30
0.0
 11
-0.0000000000000137
 21
0.0
 31
0.0
  0
LINE
  5
CA1
330
1F
100
AcDbEntity
  8
ceco.net 431 FIFA futbol soccer field
100
AcDbLine
 10
-2.451370187403778
 20
41.28961748633877
 30
0.0
 11
-0.0000000000000061
 21
41.28961748633879
 31
0.0
  0
LINE
  5
CA2
102
{ACAD_REACTORS
330
CAD
102
}
330
1F
100
AcDbEntity
  8
ceco.net 431 FIFA futbol soccer field
100
AcDbLine
 10
-2.451370187403778
 20
33.02732240437157
 30
0.0
 11
-0.0000000000000076
 21
33.02732240437158
 31
0.0
  0
CIRCLE
  5
CA3
102
{ACAD_REACTORS
330
CA4
102
}
330
1F
100
AcDbEntity
  8
ceco.net 431 FIFA futbol soccer field
100
AcDbCircle
 10
0.065573770491797
 20
33.09289617486338
 30
0.0
 40
0.0655737704918033
  0
HATCH
  5
CA4
330
1F
100
AcDbEntity
  8
ceco.net 431 FIFA futbol soccer field
100
AcDbHatch
 10
0.0
 20
0.0
 30
0.0
210
0.0
220
0.0
230
0.9999999999999998
  2
SOLID
 70
     1
 71
     1
 91
        1
 92
        1
 93
        1
 72
     2
 10
0.065573770491797
 20
33.09289617486338
 40
0.0655737704918033
 50
0.0
 51
360.0
 73
     1
 97
        1
330
CA3
 75
     0
 76
     1
 98
        1
 10
0.0
 20
0.0
1001
ACAD
1010
0.0
1020
0.0
1030
0.0
  0
LINE
  5
CA5
330
1F
100
AcDbEntity
  8
ceco.net 431 FIFA futbol soccer field
100
AcDbLine
 10
-2.451370187403778
 20
41.28961748633878
 30
0.0
 11
-2.451370187403779
 21
33.02732240437157
 31
0.0
  0
HATCH
  5
CA6
330
1F
100
AcDbEntity
  8
ceco.net 431 FIFA futbol soccer field
100
AcDbHatch
 10
0.0
 20
0.0
 30
0.0
210
0.0
220
0.0
230
0.9999999999999998
  2
SOLID
 70
     1
 71
     1
 91
        1
 92
        1
 93
        1
 72
     2
 10
0.065573770491797
 20
41.22404371584699
 40
0.0655737704918033
 50
0.0
 51
360.0
 73
     1
 97
        1
330
CA7
 75
     0
 76
     1
 98
        1
 10
0.0
 20
74.31693989071035
1001
ACAD
1010
0.0
1020
0.0
1030
0.0
  0
CIRCLE
  5
CA7
102
{ACAD_REACTORS
330
CA6
102
}
330
1F
100
AcDbEntity
  8
ceco.net 431 FIFA futbol soccer field
100
AcDbCircle
 10
0.065573770491797
 20
41.22404371584699
 30
0.0
 40
0.0655737704918033
  0
ARC
  5
CA8
102
{ACAD_REACTORS
330
CAD
102
}
330
1F
100
AcDbEntity
  8
ceco.net 431 FIFA futbol soccer field
100
AcDbCircle
 10
-2.204434840712794
 20
50.40127877483485
 30
0.0
 40
9.374534889967927
100
AcDbArc
 50
270.1139402402002
 51
283.6005464255595
  0
ARC
  5
CA9
102
{ACAD_REACTORS
330
CAD
102
}
330
1F
100
AcDbEntity
  8
ceco.net 431 FIFA futbol soccer field
100
AcDbCircle
 10
-23.33783994602148
 20
37.15738944084198
 30
0.0
 40
21.50305012733342
100
AcDbArc
 50
349.6334258249483
 51
10.36657417505164
  0
ARC
  5
CAA
102
{ACAD_REACTORS
330
CAD
102
}
330
1F
100
AcDbEntity
  8
ceco.net 431 FIFA futbol soccer field
100
AcDbCircle
 10
-2.202388755153906
 20
23.91344315752948
 30
0.0
 40
9.374534889967927
100
AcDbArc
 50
76.41231938233055
 51
89.89856515614411
  0
LINE
  5
CAB
330
1F
100
AcDbEntity
  8
ceco.net 431 FIFA futbol soccer field
100
AcDbLine
 10
-2.185792349726779
 20
41.02676242140328
 30
0.0
 11
-2.451370187403778
 21
41.28961748633877
 31
0.0
  0
LINE
  5
CAC
330
1F
100
AcDbEntity
  8
ceco.net 431 FIFA futbol soccer field
100
AcDbLine
 10
-2.185792349726781
 20
33.28796335658783
 30
0.0
 11
-2.451370187403778
 21
33.02732240437157
 31
0.0
  0
HATCH
  5
CAD
330
1F
100
AcDbEntity
  8
ceco.net 431 Goal net
100
AcDbHatch
 10
0.0
 20
0.0
 30
0.0
210
0.0
220
0.0
230
0.9999999999999998
  2
HONEY
 70
     0
 71
     1
 91
        1
 92
        7
 72
     1
 73
     1
 93
        5
 10
-0.0000000000000058
 20
41.2896174863388
 42
-0.0589144413822573
 10
-2.185792349726778
 20
41.02676242140328
 42
-0.0907136584086143
 10
-2.18580206098261
 20
33.28796337377535
 42
-0.0587165242351793
 10
-0.0071417355210635
 20
33.02732240437158
 42
0.0
 10
-0.0000000000000076
 20
33.02732240437158
 42
0.0
 97
        5
330
CA8
330
CA9
330
CAA
330
CA2
330
C9C
 75
     0
 76
     1
 52
0.0
 41
0.0273224043715847
 77
     0
 78
     3
 53
0.0
 43
0.0
 44
0.0
 45
0.1301229508196721
 46
0.0751265027322404
 79
     2
 49
0.0867486338797814
 49
-0.1734972677595628
 53
119.9999999999999
 43
0.0
 44
0.0
 45
-0.1301229352734373
 46
0.075126529659109
 79
     2
 49
0.0867486338797814
 49
-0.1734972677595628
 53
60.0
 43
0.0
 44
0.0
 45
0.0000000155462348
 46
0.1502530323913494
 79
     2
 49
-0.1734972677595628
 49
0.0867486338797814
 47
0.028616447955339
 98
        1
 10
-0.6150912256143882
 20
39.66129033227833
1001
ACAD
1010
0.0
1020
0.0
1030
0.0
  0
LINE
  5
CAE
330
1F
100
AcDbEntity
  8
ceco.net 431 FIFA futbol soccer field
100
AcDbLine
 10
57.44262295081966
 20
74.18579234972678
 30
0.0
 11
57.44262295081966
 21
37.47971450178576
 31
0.0
  0
LINE
  5
CAF
330
1F
100
AcDbEntity
  8
ceco.net 431 FIFA futbol soccer field
100
AcDbLine
 10
57.31147540983606
 20
74.18579234972678
 30
0.0
 11
57.31147540983606
 21
37.47971450178576
 31
0.0
  0
LINE
  5
CB0
330
1F
100
AcDbEntity
  8
ceco.net 431 FIFA futbol soccer field
100
AcDbLine
 10
57.44262295081967
 20
74.18579234972677
 30
0.0
 11
113.6690995719352
 21
74.18579234972677
 31
0.0
  0
LINE
  5
CB1
330
1F
100
AcDbEntity
  8
ceco.net 431 FIFA futbol soccer field
100
AcDbLine
 10
57.44262295081966
 20
0.1311475409836065
 30
0.0
 11
113.6690995719352
 21
0.1311475409836065
 31
0.0
  0
LINE
  5
CB2
330
1F
100
AcDbEntity
  8
ceco.net 431 FIFA futbol soccer field
100
AcDbLine
 10
114.7540983606557
 20
0.0
 30
0.0
 11
104.7540983606557
 21
0.0
 31
0.0
  0
LINE
  5
CB3
330
1F
100
AcDbEntity
  8
ceco.net 431 FIFA futbol soccer field
100
AcDbLine
 10
114.6229508196721
 20
0.1311475409836065
 30
0.0
 11
113.8013335642533
 21
0.1311475409836065
 31
0.0
  0
LINE
  5
CB4
330
1F
100
AcDbEntity
  8
ceco.net 431 FIFA futbol soccer field
100
AcDbLine
 10
114.7540983606557
 20
74.31693989071037
 30
0.0
 11
104.7540983606557
 21
74.31693989071037
 31
0.0
  0
LINE
  5
CB5
330
1F
100
AcDbEntity
  8
ceco.net 431 FIFA futbol soccer field
100
AcDbLine
 10
104.7540983606557
 20
76.50273224043715
 30
0.0
 11
104.6229508196721
 21
76.50273224043715
 31
0.0
  0
LINE
  5
CB6
330
1F
100
AcDbEntity
  8
ceco.net 431 FIFA futbol soccer field
100
AcDbLine
 10
114.6229508196721
 20
74.18579234972677
 30
0.0
 11
113.8013335642533
 21
74.18579234972677
 31
0.0
  0
LINE
  5
CB7
330
1F
100
AcDbEntity
  8
ceco.net 431 FIFA futbol soccer field
100
AcDbLine
 10
114.7540983606557
 20
74.31693989071037
 30
0.0
 11
114.7540983606557
 21
64.31693989071037
 31
0.0
  0
HATCH
  5
CB8
330
1F
100
AcDbEntity
  8
ceco.net 431 Goal net
100
AcDbHatch
 10
0.0
 20
0.0
 30
0.0
210
0.0
220
0.0
230
0.9999999999999998
  2
HONEY
 70
     0
 71
     1
 91
        1
 92
        7
 72
     1
 73
     1
 93
        5
 10
114.7540983606557
 20
33.02732240437158
 42
0.0
 10
114.7612400961767
 20
33.02732240437158
 42
-0.0587165242351791
 10
116.9399004216383
 20
33.28796337377535
 42
-0.0907136584086145
 10
116.9398907103825
 20
41.02676242140328
 42
-0.0589144413822577
 10
114.7540983606557
 20
41.28961748633879
 42
0.0
 97
        5
330
CE7
330
CE8
330
CE9
330
CE1
330
CB9
 75
     0
 76
     1
 52
0.0
 41
0.0273224043715847
 77
     0
 78
     3
 53
180.0
 43
114.7540983606557
 44
0.0
 45
-0.1301229508196721
 46
0.0751265027322404
 79
     2
 49
0.0867486338797814
 49
-0.1734972677595628
 53
60.0
 43
114.7540983606557
 44
0.0
 45
0.1301229352734373
 46
0.075126529659109
 79
     2
 49
0.0867486338797814
 49
-0.1734972677595628
 53
120.0
 43
114.7540983606557
 44
0.0
 45
-0.0000000155462348
 46
0.1502530323913494
 79
     2
 49
-0.1734972677595628
 49
0.0867486338797814
 47
0.028616447955339
 98
        1
 10
115.3691895862701
 20
39.66129033227833
1001
ACAD
1010
0.0
1020
0.0
1030
0.0
  0
LINE
  5
CB9
102
{ACAD_REACTORS
330
CB8
102
}
330
1F
100
AcDbEntity
  8
ceco.net 431 FIFA futbol soccer field
100
AcDbLine
 10
114.7540983606557
 20
64.18579234972677
 30
0.0
 11
114.7540983606557
 21
10.1311475409836
 31
0.0
  0
LINE
  5
CBA
330
1F
100
AcDbEntity
  8
ceco.net 431 FIFA futbol soccer field
100
AcDbLine
 10
117.2054685480595
 20
41.28961748633878
 30
0.0
 11
117.2054685480595
 21
33.02732240437157
 31
0.0
  0
LINE
  5
CBB
330
1F
100
AcDbEntity
  8
ceco.net 431 FIFA futbol soccer field
100
AcDbLine
 10
114.7540983606557
 20
10.0
 30
0.0
 11
114.7540983606557
 21
0.0
 31
0.0
  0
LINE
  5
CBC
330
1F
100
AcDbEntity
  8
ceco.net 431 FIFA futbol soccer field
100
AcDbLine
 10
114.6229508196721
 20
74.18579234972677
 30
0.0
 11
114.6229508196721
 21
73.36417509430804
 31
0.0
  0
LINE
  5
CBD
330
1F
100
AcDbEntity
  8
ceco.net 431 FIFA futbol soccer field
100
AcDbLine
 10
114.6229508196721
 20
73.23194110198986
 30
0.0
 11
114.6229508196721
 21
59.18032786885245
 31
0.0
  0
LINE
  5
CBE
330
1F
100
AcDbEntity
  8
ceco.net 431 FIFA futbol soccer field
100
AcDbLine
 10
114.6229508196721
 20
59.04918032786885
 30
0.0
 11
114.6229508196721
 21
15.26775956284152
 31
0.0
  0
LINE
  5
CBF
330
1F
100
AcDbEntity
  8
ceco.net 431 FIFA futbol soccer field
100
AcDbLine
 10
108.6120218579234
 20
47.15846994535518
 30
0.0
 11
108.6120218579234
 21
27.15846994535518
 31
0.0
  0
LINE
  5
CC0
330
1F
100
AcDbEntity
  8
ceco.net 431 FIFA futbol soccer field
100
AcDbLine
 10
108.4808743169398
 20
47.28961748633879
 30
0.0
 11
108.4808743169398
 21
27.02732240437158
 31
0.0
  0
LINE
  5
CC1
330
1F
100
AcDbEntity
  8
ceco.net 431 FIFA futbol soccer field
100
AcDbLine
 10
114.6229508196721
 20
15.13661202185792
 30
0.0
 11
114.6229508196721
 21
1.084998788720513
 31
0.0
  0
LINE
  5
CC2
330
1F
100
AcDbEntity
  8
ceco.net 431 FIFA futbol soccer field
100
AcDbLine
 10
114.6229508196721
 20
0.9527647964023348
 30
0.0
 11
114.6229508196721
 21
0.1311475409836065
 31
0.0
  0
LINE
  5
CC3
330
1F
100
AcDbEntity
  8
ceco.net 431 FIFA futbol soccer field
100
AcDbLine
 10
96.59016393442621
 20
59.18032786885245
 30
0.0
 11
96.59016393442621
 21
45.31376782550583
 31
0.0
  0
LINE
  5
CC4
330
1F
100
AcDbEntity
  8
ceco.net 431 FIFA futbol soccer field
100
AcDbLine
 10
96.59016393442621
 20
45.15026154779398
 30
0.0
 11
96.59016393442623
 21
29.16667834291638
 31
0.0
  0
LINE
  5
CC5
330
1F
100
AcDbEntity
  8
ceco.net 431 FIFA futbol soccer field
100
AcDbLine
 10
96.59016393442623
 20
29.00317206520454
 30
0.0
 11
96.59016393442623
 21
15.13661202185792
 31
0.0
  0
LINE
  5
CC6
330
1F
100
AcDbEntity
  8
ceco.net 431 FIFA futbol soccer field
100
AcDbLine
 10
96.72131147540982
 20
59.04918032786884
 30
0.0
 11
96.72131147540982
 21
15.26775956284153
 31
0.0
  0
CIRCLE
  5
CC7
330
1F
100
AcDbEntity
  8
ceco.net 431 FIFA futbol soccer field
100
AcDbCircle
 10
102.6010928961748
 20
37.15846994535518
 30
0.0
 40
0.3278688524590164
  0
ARC
  5
CC8
330
1F
100
AcDbEntity
  8
ceco.net 431 FIFA futbol soccer field
100
AcDbCircle
 10
102.6010928961748
 20
37.15846994535518
 30
0.0
 40
10.0
100
AcDbArc
 50
126.9482107330498
 51
233.0517892669501
  0
ARC
  5
CC9
330
1F
100
AcDbEntity
  8
ceco.net 431 FIFA futbol soccer field
100
AcDbCircle
 10
102.6010928961748
 20
37.15846994535518
 30
0.0
 40
10.1311475409836
100
AcDbArc
 50
126.3923745280061
 51
233.6076254719939
  0
LINE
  5
CCA
330
1F
100
AcDbEntity
  8
ceco.net 431 FIFA futbol soccer field
100
AcDbLine
 10
96.59016393442621
 20
59.18032786885245
 30
0.0
 11
114.6229508196721
 21
59.18032786885245
 31
0.0
  0
LINE
  5
CCB
330
1F
100
AcDbEntity
  8
ceco.net 431 FIFA futbol soccer field
100
AcDbLine
 10
96.72131147540982
 20
59.04918032786884
 30
0.0
 11
114.6229508196721
 21
59.04918032786884
 31
0.0
  0
LINE
  5
CCC
330
1F
100
AcDbEntity
  8
ceco.net 431 FIFA futbol soccer field
100
AcDbLine
 10
96.59016393442623
 20
15.13661202185792
 30
0.0
 11
114.6229508196721
 21
15.13661202185792
 31
0.0
  0
LINE
  5
CCD
330
1F
100
AcDbEntity
  8
ceco.net 431 FIFA futbol soccer field
100
AcDbLine
 10
96.72131147540982
 20
15.26775956284153
 30
0.0
 11
114.6229508196721
 21
15.26775956284152
 31
0.0
  0
ARC
  5
CCE
330
1F
100
AcDbEntity
  8
ceco.net 431 FIFA futbol soccer field
100
AcDbCircle
 10
114.7540983606557
 20
0.0
 30
0.0
 40
1.092896174863387
100
AcDbArc
 50
96.89210257934583
 51
173.1078974206536
  0
ARC
  5
CCF
330
1F
100
AcDbEntity
  8
ceco.net 431 FIFA futbol soccer field
100
AcDbCircle
 10
114.7540983606557
 20
0.0
 30
0.0
 40
0.9617486338797812
100
AcDbArc
 50
97.83747976308367
 51
172.1625202369156
  0
ARC
  5
CD0
330
1F
100
AcDbEntity
  8
ceco.net 431 FIFA futbol soccer field
100
AcDbCircle
 10
114.7540983606557
 20
74.31693989071037
 30
0.0
 40
1.092896174863387
100
AcDbArc
 50
186.8921025793466
 51
263.1078974206541
  0
ARC
  5
CD1
330
1F
100
AcDbEntity
  8
ceco.net 431 FIFA futbol soccer field
100
AcDbCircle
 10
114.7540983606557
 20
74.31693989071037
 30
0.0
 40
0.9617486338797812
100
AcDbArc
 50
187.8374797630846
 51
262.1625202369163
  0
LINE
  5
CD2
330
1F
100
AcDbEntity
  8
ceco.net 431 FIFA futbol soccer field
100
AcDbLine
 10
108.4808743169398
 20
27.02732240437158
 30
0.0
 11
114.6229508196721
 21
27.02732240437158
 31
0.0
  0
LINE
  5
CD3
330
1F
100
AcDbEntity
  8
ceco.net 431 FIFA futbol soccer field
100
AcDbLine
 10
108.6120218579234
 20
27.15846994535518
 30
0.0
 11
114.6229508196721
 21
27.15846994535518
 31
0.0
  0
LINE
  5
CD4
330
1F
100
AcDbEntity
  8
ceco.net 431 FIFA futbol soccer field
100
AcDbLine
 10
108.4808743169398
 20
47.28961748633879
 30
0.0
 11
114.6229508196721
 21
47.28961748633879
 31
0.0
  0
LINE
  5
CD5
330
1F
100
AcDbEntity
  8
ceco.net 431 FIFA futbol soccer field
100
AcDbLine
 10
108.6120218579234
 20
47.15846994535518
 30
0.0
 11
114.6229508196721
 21
47.15846994535518
 31
0.0
  0
LINE
  5
CD6
330
1F
100
AcDbEntity
  8
ceco.net 431 FIFA futbol soccer field
100
AcDbLine
 10
104.7540983606557
 20
74.31693989071037
 30
0.0
 11
104.7540983606557
 21
76.50273224043715
 31
0.0
  0
LINE
  5
CD7
330
1F
100
AcDbEntity
  8
ceco.net 431 FIFA futbol soccer field
100
AcDbLine
 10
104.6229508196721
 20
74.31693989071037
 30
0.0
 11
104.6229508196721
 21
76.50273224043715
 31
0.0
  0
LINE
  5
CD8
330
1F
100
AcDbEntity
  8
ceco.net 431 FIFA futbol soccer field
100
AcDbLine
 10
104.7540983606557
 20
-2.185792349726775
 30
0.0
 11
104.6229508196721
 21
-2.185792349726775
 31
0.0
  0
LINE
  5
CD9
330
1F
100
AcDbEntity
  8
ceco.net 431 FIFA futbol soccer field
100
AcDbLine
 10
104.7540983606557
 20
0.0
 30
0.0
 11
104.7540983606557
 21
-2.185792349726775
 31
0.0
  0
LINE
  5
CDA
330
1F
100
AcDbEntity
  8
ceco.net 431 FIFA futbol soccer field
100
AcDbLine
 10
104.6229508196721
 20
0.0
 30
0.0
 11
104.6229508196721
 21
-2.185792349726775
 31
0.0
  0
LINE
  5
CDB
330
1F
100
AcDbEntity
  8
ceco.net 431 FIFA futbol soccer field
100
AcDbLine
 10
116.9398907103824
 20
64.31693989071037
 30
0.0
 11
116.9398907103824
 21
64.18579234972677
 31
0.0
  0
LINE
  5
CDC
330
1F
100
AcDbEntity
  8
ceco.net 431 FIFA futbol soccer field
100
AcDbLine
 10
114.7540983606556
 20
64.31693989071037
 30
0.0
 11
116.9398907103824
 21
64.31693989071037
 31
0.0
  0
LINE
  5
CDD
330
1F
100
AcDbEntity
  8
ceco.net 431 FIFA futbol soccer field
100
AcDbLine
 10
114.7540983606556
 20
64.18579234972677
 30
0.0
 11
116.9398907103824
 21
64.18579234972677
 31
0.0
  0
LINE
  5
CDE
330
1F
100
AcDbEntity
  8
ceco.net 431 FIFA futbol soccer field
100
AcDbLine
 10
116.9398907103824
 20
10.0
 30
0.0
 11
116.9398907103824
 21
10.1311475409836
 31
0.0
  0
LINE
  5
CDF
330
1F
100
AcDbEntity
  8
ceco.net 431 FIFA futbol soccer field
100
AcDbLine
 10
114.7540983606556
 20
9.999999999999998
 30
0.0
 11
116.9398907103824
 21
10.0
 31
0.0
  0
LINE
  5
CE0
330
1F
100
AcDbEntity
  8
ceco.net 431 FIFA futbol soccer field
100
AcDbLine
 10
114.7540983606556
 20
10.1311475409836
 30
0.0
 11
116.9398907103824
 21
10.1311475409836
 31
0.0
  0
LINE
  5
CE1
102
{ACAD_REACTORS
330
CB8
102
}
330
1F
100
AcDbEntity
  8
ceco.net 431 FIFA futbol soccer field
100
AcDbLine
 10
117.2054685480595
 20
33.02732240437157
 30
0.0
 11
114.7540983606557
 21
33.02732240437158
 31
0.0
  0
LINE
  5
CE2
330
1F
100
AcDbEntity
  8
ceco.net 431 FIFA futbol soccer field
100
AcDbLine
 10
117.2054685480595
 20
41.28961748633877
 30
0.0
 11
114.7540983606557
 21
41.28961748633879
 31
0.0
  0
HATCH
  5
CE3
330
1F
100
AcDbEntity
  8
ceco.net 431 FIFA futbol soccer field
100
AcDbHatch
 10
0.0
 20
0.0
 30
0.0
210
0.0
220
0.0
230
0.9999999999999998
  2
SOLID
 70
     1
 71
     1
 91
        1
 92
        1
 93
        1
 72
     2
 10
114.6885245901639
 20
33.09289617486338
 40
0.0655737704918033
 50
0.0
 51
360.0
 73
     1
 97
        1
330
CE4
 75
     0
 76
     1
 98
        1
 10
114.7540983606557
 20
0.0
1001
ACAD
1010
0.0
1020
0.0
1030
0.0
  0
CIRCLE
  5
CE4
102
{ACAD_REACTORS
330
CE3
102
}
330
1F
100
AcDbEntity
  8
ceco.net 431 FIFA futbol soccer field
100
AcDbCircle
 10
114.6885245901639
 20
33.09289617486338
 30
0.0
 40
0.0655737704918033
  0
HATCH
  5
CE5
330
1F
100
AcDbEntity
  8
ceco.net 431 FIFA futbol soccer field
100
AcDbHatch
 10
0.0
 20
0.0
 30
0.0
210
0.0
220
0.0
230
0.9999999999999998
  2
SOLID
 70
     1
 71
     1
 91
        1
 92
        1
 93
        1
 72
     2
 10
114.6885245901639
 20
41.22404371584699
 40
0.0655737704918033
 50
0.0
 51
360.0
 73
     1
 97
        1
330
CE6
 75
     0
 76
     1
 98
        1
 10
114.7540983606557
 20
74.31693989071035
1001
ACAD
1010
0.0
1020
0.0
1030
0.0
  0
CIRCLE
  5
CE6
102
{ACAD_REACTORS
330
CE5
102
}
330
1F
100
AcDbEntity
  8
ceco.net 431 FIFA futbol soccer field
100
AcDbCircle
 10
114.6885245901639
 20
41.22404371584699
 30
0.0
 40
0.0655737704918033
  0
ARC
  5
CE7
102
{ACAD_REACTORS
330
CB8
102
}
330
1F
100
AcDbEntity
  8
ceco.net 431 FIFA futbol soccer field
100
AcDbCircle
 10
116.9585332013685
 20
50.40127877483485
 30
0.0
 40
9.374534889967927
100
AcDbArc
 50
256.3994535744402
 51
269.8860597597997
  0
ARC
  5
CE8
102
{ACAD_REACTORS
330
CB8
102
}
330
1F
100
AcDbEntity
  8
ceco.net 431 FIFA futbol soccer field
100
AcDbCircle
 10
138.0919383066772
 20
37.15738944084198
 30
0.0
 40
21.50305012733342
100
AcDbArc
 50
169.6334258249483
 51
190.3665741750517
  0
ARC
  5
CE9
102
{ACAD_REACTORS
330
CB8
102
}
330
1F
100
AcDbEntity
  8
ceco.net 431 FIFA futbol soccer field
100
AcDbCircle
 10
116.9564871158096
 20
23.91344315752948
 30
0.0
 40
9.374534889967927
100
AcDbArc
 50
90.10143484385594
 51
103.5876806176696
  0
LINE
  5
CEA
330
1F
100
AcDbEntity
  8
ceco.net 431 FIFA futbol soccer field
100
AcDbLine
 10
116.9398907103825
 20
41.02676242140328
 30
0.0
 11
117.2054685480595
 21
41.28961748633877
 31
0.0
  0
LINE
  5
CEB
330
1F
100
AcDbEntity
  8
ceco.net 431 FIFA futbol soccer field
100
AcDbLine
 10
116.9398907103825
 20
33.28796335658783
 30
0.0
 11
117.2054685480595
 21
33.02732240437157
 31
0.0
  0
LINE
  5
CEC
330
1F
100
AcDbEntity
  8
ceco.net 431 tecnical area
100
AcDbLine
 10
59.56284153005464
 20
-1.092896174863387
 30
0.0
 11
59.56284153005465
 21
-1.74863387978142
 31
0.0
  0
LINE
  5
CED
330
1F
100
AcDbEntity
  8
ceco.net 431 tecnical area
100
AcDbLine
 10
59.56284153005465
 20
-1.092896174863387
 30
0.0
 11
60.21857923497266
 21
-1.092896174863387
 31
0.0
  0
LINE
  5
CEE
330
1F
100
AcDbEntity
  8
ceco.net 431 tecnical area
100
AcDbLine
 10
68.30601092896174
 20
-1.092896174863387
 30
0.0
 11
68.30601092896174
 21
-1.74863387978142
 31
0.0
  0
LINE
  5
CEF
330
1F
100
AcDbEntity
  8
ceco.net 431 tecnical area
100
AcDbLine
 10
59.69398907103824
 20
-1.224043715846994
 30
0.0
 11
59.69398907103824
 21
-1.74863387978142
 31
0.0
  0
LINE
  5
CF0
330
1F
100
AcDbEntity
  8
ceco.net 431 tecnical area
100
AcDbLine
 10
68.17486338797813
 20
-1.224043715846994
 30
0.0
 11
68.17486338797813
 21
-1.74863387978142
 31
0.0
  0
LINE
  5
CF1
330
1F
100
AcDbEntity
  8
ceco.net 431 tecnical area
100
AcDbLine
 10
59.69398907103824
 20
-1.224043715846994
 30
0.0
 11
60.21857923497266
 21
-1.224043715846994
 31
0.0
  0
LINE
  5
CF2
330
1F
100
AcDbEntity
  8
ceco.net 431 tecnical area
100
AcDbLine
 10
60.21857923497267
 20
-1.092896174863387
 30
0.0
 11
60.21857923497267
 21
-1.224043715846994
 31
0.0
  0
LINE
  5
CF3
330
1F
100
AcDbEntity
  8
ceco.net 431 tecnical area
100
AcDbLine
 10
67.6502732240437
 20
-1.092896174863387
 30
0.0
 11
67.6502732240437
 21
-1.224043715846994
 31
0.0
  0
LINE
  5
CF4
330
1F
100
AcDbEntity
  8
ceco.net 431 tecnical area
100
AcDbLine
 10
59.56284153005465
 20
-1.74863387978142
 30
0.0
 11
59.69398907103824
 21
-1.74863387978142
 31
0.0
  0
LINE
  5
CF5
330
1F
100
AcDbEntity
  8
ceco.net 431 tecnical area
100
AcDbLine
 10
60.43715846994535
 20
-1.092896174863387
 30
0.0
 11
60.43715846994535
 21
-1.224043715846994
 31
0.0
  0
LINE
  5
CF6
330
1F
100
AcDbEntity
  8
ceco.net 431 tecnical area
100
AcDbLine
 10
67.43169398907102
 20
-1.092896174863387
 30
0.0
 11
67.43169398907103
 21
-1.224043715846994
 31
0.0
  0
LINE
  5
CF7
330
1F
100
AcDbEntity
  8
ceco.net 431 tecnical area
100
AcDbLine
 10
59.56284153005465
 20
-1.967213114754098
 30
0.0
 11
59.69398907103824
 21
-1.967213114754097
 31
0.0
  0
LINE
  5
CF8
330
1F
100
AcDbEntity
  8
ceco.net 431 tecnical area
100
AcDbLine
 10
61.42076502732241
 20
-1.092896174863387
 30
0.0
 11
61.42076502732241
 21
-1.224043715846994
 31
0.0
  0
LINE
  5
CF9
330
1F
100
AcDbEntity
  8
ceco.net 431 tecnical area
100
AcDbLine
 10
66.44808743169398
 20
-1.092896174863387
 30
0.0
 11
66.44808743169396
 21
-1.224043715846994
 31
0.0
  0
LINE
  5
CFA
330
1F
100
AcDbEntity
  8
ceco.net 431 tecnical area
100
AcDbLine
 10
61.63934426229508
 20
-1.092896174863387
 30
0.0
 11
61.63934426229508
 21
-1.224043715846994
 31
0.0
  0
LINE
  5
CFB
330
1F
100
AcDbEntity
  8
ceco.net 431 tecnical area
100
AcDbLine
 10
66.2295081967213
 20
-1.092896174863387
 30
0.0
 11
66.2295081967213
 21
-1.224043715846994
 31
0.0
  0
LINE
  5
CFC
330
1F
100
AcDbEntity
  8
ceco.net 431 tecnical area
100
AcDbLine
 10
62.62295081967213
 20
-1.092896174863387
 30
0.0
 11
62.62295081967213
 21
-1.224043715846994
 31
0.0
  0
LINE
  5
CFD
330
1F
100
AcDbEntity
  8
ceco.net 431 tecnical area
100
AcDbLine
 10
65.24590163934425
 20
-1.092896174863387
 30
0.0
 11
65.24590163934425
 21
-1.224043715846994
 31
0.0
  0
LINE
  5
CFE
330
1F
100
AcDbEntity
  8
ceco.net 431 tecnical area
100
AcDbLine
 10
62.84153005464481
 20
-1.092896174863387
 30
0.0
 11
62.84153005464482
 21
-1.224043715846994
 31
0.0
  0
LINE
  5
CFF
330
1F
100
AcDbEntity
  8
ceco.net 431 tecnical area
100
AcDbLine
 10
65.02732240437158
 20
-1.092896174863387
 30
0.0
 11
65.02732240437156
 21
-1.224043715846994
 31
0.0
  0
LINE
  5
D00
330
1F
100
AcDbEntity
  8
ceco.net 431 tecnical area
100
AcDbLine
 10
64.04371584699451
 20
-1.092896174863387
 30
0.0
 11
64.04371584699451
 21
-1.224043715846994
 31
0.0
  0
LINE
  5
D01
330
1F
100
AcDbEntity
  8
ceco.net 431 tecnical area
100
AcDbLine
 10
63.82513661202185
 20
-1.092896174863387
 30
0.0
 11
63.82513661202185
 21
-1.224043715846994
 31
0.0
  0
LINE
  5
D02
330
1F
100
AcDbEntity
  8
ceco.net 431 tecnical area
100
AcDbLine
 10
59.56284153005465
 20
-2.950819672131147
 30
0.0
 11
59.69398907103825
 21
-2.950819672131147
 31
0.0
  0
LINE
  5
D03
330
1F
100
AcDbEntity
  8
ceco.net 431 tecnical area
100
AcDbLine
 10
59.56284153005465
 20
-3.169398907103825
 30
0.0
 11
59.69398907103825
 21
-3.169398907103825
 31
0.0
  0
LINE
  5
D04
330
1F
100
AcDbEntity
  8
ceco.net 431 tecnical area
100
AcDbLine
 10
59.56284153005465
 20
-4.153005464480874
 30
0.0
 11
59.69398907103825
 21
-4.153005464480874
 31
0.0
  0
LINE
  5
D05
330
1F
100
AcDbEntity
  8
ceco.net 431 tecnical area
100
AcDbLine
 10
59.56284153005465
 20
-4.371584699453551
 30
0.0
 11
59.69398907103825
 21
-4.371584699453551
 31
0.0
  0
LINE
  5
D06
330
1F
100
AcDbEntity
  8
ceco.net 431 tecnical area
100
AcDbLine
 10
59.56284153005465
 20
-5.027322404371584
 30
0.0
 11
60.21857923497268
 21
-5.027322404371584
 31
0.0
  0
LINE
  5
D07
330
1F
100
AcDbEntity
  8
ceco.net 431 tecnical area
100
AcDbLine
 10
59.69398907103825
 20
-4.896174863387978
 30
0.0
 11
60.21857923497268
 21
-4.896174863387977
 31
0.0
  0
LINE
  5
D08
330
1F
100
AcDbEntity
  8
ceco.net 431 tecnical area
100
AcDbLine
 10
60.21857923497268
 20
-4.896174863387977
 30
0.0
 11
60.21857923497268
 21
-5.027322404371584
 31
0.0
  0
LINE
  5
D09
330
1F
100
AcDbEntity
  8
ceco.net 431 tecnical area
100
AcDbLine
 10
60.43715846994535
 20
-4.896174863387977
 30
0.0
 11
60.43715846994535
 21
-5.027322404371584
 31
0.0
  0
LINE
  5
D0A
330
1F
100
AcDbEntity
  8
ceco.net 431 tecnical area
100
AcDbLine
 10
64.04371584699451
 20
-4.896174863387977
 30
0.0
 11
64.04371584699453
 21
-5.027322404371584
 31
0.0
  0
LINE
  5
D0B
330
1F
100
AcDbEntity
  8
ceco.net 431 tecnical area
100
AcDbLine
 10
65.02732240437156
 20
-4.896174863387977
 30
0.0
 11
65.02732240437156
 21
-5.027322404371584
 31
0.0
  0
LINE
  5
D0C
330
1F
100
AcDbEntity
  8
ceco.net 431 tecnical area
100
AcDbLine
 10
65.24590163934424
 20
-4.896174863387977
 30
0.0
 11
65.24590163934425
 21
-5.027322404371584
 31
0.0
  0
LINE
  5
D0D
330
1F
100
AcDbEntity
  8
ceco.net 431 tecnical area
100
AcDbLine
 10
66.22950819672128
 20
-4.896174863387977
 30
0.0
 11
66.22950819672128
 21
-5.027322404371584
 31
0.0
  0
LINE
  5
D0E
330
1F
100
AcDbEntity
  8
ceco.net 431 tecnical area
100
AcDbLine
 10
66.44808743169396
 20
-4.896174863387977
 30
0.0
 11
66.44808743169398
 21
-5.027322404371584
 31
0.0
  0
LINE
  5
D0F
330
1F
100
AcDbEntity
  8
ceco.net 431 tecnical area
100
AcDbLine
 10
67.43169398907102
 20
-4.896174863387977
 30
0.0
 11
67.43169398907102
 21
-5.027322404371584
 31
0.0
  0
LINE
  5
D10
330
1F
100
AcDbEntity
  8
ceco.net 431 tecnical area
100
AcDbLine
 10
67.6502732240437
 20
-4.896174863387977
 30
0.0
 11
67.6502732240437
 21
-5.027322404371584
 31
0.0
  0
LINE
  5
D11
330
1F
100
AcDbEntity
  8
ceco.net 431 tecnical area
100
AcDbLine
 10
63.82513661202187
 20
-4.896174863387977
 30
0.0
 11
63.82513661202187
 21
-5.027322404371584
 31
0.0
  0
LINE
  5
D12
330
1F
100
AcDbEntity
  8
ceco.net 431 tecnical area
100
AcDbLine
 10
62.84153005464482
 20
-4.896174863387977
 30
0.0
 11
62.84153005464482
 21
-5.027322404371584
 31
0.0
  0
LINE
  5
D13
330
1F
100
AcDbEntity
  8
ceco.net 431 tecnical area
100
AcDbLine
 10
62.62295081967214
 20
-4.896174863387977
 30
0.0
 11
62.62295081967213
 21
-5.027322404371584
 31
0.0
  0
LINE
  5
D14
330
1F
100
AcDbEntity
  8
ceco.net 431 tecnical area
100
AcDbLine
 10
61.63934426229508
 20
-4.896174863387977
 30
0.0
 11
61.63934426229508
 21
-5.027322404371584
 31
0.0
  0
LINE
  5
D15
330
1F
100
AcDbEntity
  8
ceco.net 431 tecnical area
100
AcDbLine
 10
61.42076502732241
 20
-4.896174863387977
 30
0.0
 11
61.42076502732241
 21
-5.027322404371584
 31
0.0
  0
LINE
  5
D16
330
1F
100
AcDbEntity
  8
ceco.net 431 tecnical area
100
AcDbLine
 10
68.17486338797815
 20
-4.371584699453551
 30
0.0
 11
68.30601092896174
 21
-4.371584699453551
 31
0.0
  0
LINE
  5
D17
330
1F
100
AcDbEntity
  8
ceco.net 431 tecnical area
100
AcDbLine
 10
68.17486338797815
 20
-4.153005464480873
 30
0.0
 11
68.30601092896174
 21
-4.153005464480874
 31
0.0
  0
LINE
  5
D18
330
1F
100
AcDbEntity
  8
ceco.net 431 tecnical area
100
AcDbLine
 10
68.17486338797815
 20
-3.169398907103824
 30
0.0
 11
68.30601092896174
 21
-3.169398907103825
 31
0.0
  0
LINE
  5
D19
330
1F
100
AcDbEntity
  8
ceco.net 431 tecnical area
100
AcDbLine
 10
68.17486338797815
 20
-2.950819672131147
 30
0.0
 11
68.30601092896174
 21
-2.950819672131147
 31
0.0
  0
LINE
  5
D1A
330
1F
100
AcDbEntity
  8
ceco.net 431 tecnical area
100
AcDbLine
 10
68.17486338797813
 20
-1.967213114754098
 30
0.0
 11
68.30601092896174
 21
-1.967213114754098
 31
0.0
  0
LINE
  5
D1B
330
1F
100
AcDbEntity
  8
ceco.net 431 tecnical area
100
AcDbLine
 10
68.17486338797813
 20
-1.74863387978142
 30
0.0
 11
68.30601092896174
 21
-1.74863387978142
 31
0.0
  0
LINE
  5
D1C
330
1F
100
AcDbEntity
  8
ceco.net 431 tecnical area
100
AcDbLine
 10
60.43715846994534
 20
-1.224043715846994
 30
0.0
 11
61.42076502732241
 21
-1.224043715846994
 31
0.0
  0
LINE
  5
D1D
330
1F
100
AcDbEntity
  8
ceco.net 431 tecnical area
100
AcDbLine
 10
60.43715846994535
 20
-1.092896174863387
 30
0.0
 11
61.42076502732241
 21
-1.092896174863387
 31
0.0
  0
LINE
  5
D1E
330
1F
100
AcDbEntity
  8
ceco.net 431 tecnical area
100
AcDbLine
 10
61.63934426229508
 20
-1.224043715846994
 30
0.0
 11
62.62295081967213
 21
-1.224043715846994
 31
0.0
  0
LINE
  5
D1F
330
1F
100
AcDbEntity
  8
ceco.net 431 tecnical area
100
AcDbLine
 10
61.63934426229508
 20
-1.092896174863387
 30
0.0
 11
62.62295081967213
 21
-1.092896174863387
 31
0.0
  0
LINE
  5
D20
330
1F
100
AcDbEntity
  8
ceco.net 431 tecnical area
100
AcDbLine
 10
62.8415300546448
 20
-1.224043715846994
 30
0.0
 11
63.82513661202185
 21
-1.224043715846994
 31
0.0
  0
LINE
  5
D21
330
1F
100
AcDbEntity
  8
ceco.net 431 tecnical area
100
AcDbLine
 10
62.84153005464482
 20
-1.092896174863387
 30
0.0
 11
63.82513661202186
 21
-1.092896174863387
 31
0.0
  0
LINE
  5
D22
330
1F
100
AcDbEntity
  8
ceco.net 431 tecnical area
100
AcDbLine
 10
64.04371584699451
 20
-1.224043715846994
 30
0.0
 11
65.02732240437158
 21
-1.224043715846995
 31
0.0
  0
LINE
  5
D23
330
1F
100
AcDbEntity
  8
ceco.net 431 tecnical area
100
AcDbLine
 10
64.04371584699451
 20
-1.092896174863387
 30
0.0
 11
65.02732240437158
 21
-1.092896174863387
 31
0.0
  0
LINE
  5
D24
330
1F
100
AcDbEntity
  8
ceco.net 431 tecnical area
100
AcDbLine
 10
65.24590163934425
 20
-1.224043715846995
 30
0.0
 11
66.22950819672131
 21
-1.224043715846994
 31
0.0
  0
LINE
  5
D25
330
1F
100
AcDbEntity
  8
ceco.net 431 tecnical area
100
AcDbLine
 10
65.24590163934425
 20
-1.092896174863387
 30
0.0
 11
66.22950819672131
 21
-1.092896174863387
 31
0.0
  0
LINE
  5
D26
330
1F
100
AcDbEntity
  8
ceco.net 431 tecnical area
100
AcDbLine
 10
66.44808743169398
 20
-1.224043715846994
 30
0.0
 11
67.43169398907102
 21
-1.224043715846994
 31
0.0
  0
LINE
  5
D27
330
1F
100
AcDbEntity
  8
ceco.net 431 tecnical area
100
AcDbLine
 10
66.44808743169398
 20
-1.092896174863387
 30
0.0
 11
67.43169398907103
 21
-1.092896174863387
 31
0.0
  0
LINE
  5
D28
330
1F
100
AcDbEntity
  8
ceco.net 431 tecnical area
100
AcDbLine
 10
67.6502732240437
 20
-1.224043715846994
 30
0.0
 11
68.17486338797815
 21
-1.224043715846994
 31
0.0
  0
LINE
  5
D29
330
1F
100
AcDbEntity
  8
ceco.net 431 tecnical area
100
AcDbLine
 10
67.6502732240437
 20
-1.092896174863387
 30
0.0
 11
68.30601092896174
 21
-1.092896174863387
 31
0.0
  0
LINE
  5
D2A
330
1F
100
AcDbEntity
  8
ceco.net 431 tecnical area
100
AcDbLine
 10
68.17486338797813
 20
-1.967213114754098
 30
0.0
 11
68.17486338797815
 21
-2.950819672131147
 31
0.0
  0
LINE
  5
D2B
330
1F
100
AcDbEntity
  8
ceco.net 431 tecnical area
100
AcDbLine
 10
68.30601092896174
 20
-1.967213114754098
 30
0.0
 11
68.30601092896175
 21
-2.950819672131147
 31
0.0
  0
LINE
  5
D2C
330
1F
100
AcDbEntity
  8
ceco.net 431 tecnical area
100
AcDbLine
 10
68.17486338797815
 20
-3.169398907103825
 30
0.0
 11
68.17486338797813
 21
-4.153005464480874
 31
0.0
  0
LINE
  5
D2D
330
1F
100
AcDbEntity
  8
ceco.net 431 tecnical area
100
AcDbLine
 10
68.30601092896175
 20
-3.169398907103825
 30
0.0
 11
68.30601092896175
 21
-4.153005464480874
 31
0.0
  0
LINE
  5
D2E
330
1F
100
AcDbEntity
  8
ceco.net 431 tecnical area
100
AcDbLine
 10
68.17486338797813
 20
-4.371584699453551
 30
0.0
 11
68.17486338797813
 21
-4.896174863387978
 31
0.0
  0
LINE
  5
D2F
330
1F
100
AcDbEntity
  8
ceco.net 431 tecnical area
100
AcDbLine
 10
68.30601092896175
 20
-4.371584699453551
 30
0.0
 11
68.30601092896174
 21
-5.027322404371584
 31
0.0
  0
LINE
  5
D30
330
1F
100
AcDbEntity
  8
ceco.net 431 tecnical area
100
AcDbLine
 10
67.6502732240437
 20
-4.896174863387978
 30
0.0
 11
68.17486338797815
 21
-4.896174863387978
 31
0.0
  0
LINE
  5
D31
330
1F
100
AcDbEntity
  8
ceco.net 431 tecnical area
100
AcDbLine
 10
67.6502732240437
 20
-5.027322404371583
 30
0.0
 11
68.30601092896174
 21
-5.027322404371584
 31
0.0
  0
LINE
  5
D32
330
1F
100
AcDbEntity
  8
ceco.net 431 tecnical area
100
AcDbLine
 10
66.44808743169398
 20
-4.896174863387978
 30
0.0
 11
67.43169398907102
 21
-4.896174863387978
 31
0.0
  0
LINE
  5
D33
330
1F
100
AcDbEntity
  8
ceco.net 431 tecnical area
100
AcDbLine
 10
66.44808743169398
 20
-5.027322404371583
 30
0.0
 11
67.43169398907102
 21
-5.027322404371583
 31
0.0
  0
LINE
  5
D34
330
1F
100
AcDbEntity
  8
ceco.net 431 tecnical area
100
AcDbLine
 10
65.24590163934424
 20
-4.896174863387977
 30
0.0
 11
66.22950819672128
 21
-4.896174863387978
 31
0.0
  0
LINE
  5
D35
330
1F
100
AcDbEntity
  8
ceco.net 431 tecnical area
100
AcDbLine
 10
65.24590163934424
 20
-5.027322404371584
 30
0.0
 11
66.22950819672128
 21
-5.027322404371583
 31
0.0
  0
LINE
  5
D36
330
1F
100
AcDbEntity
  8
ceco.net 431 tecnical area
100
AcDbLine
 10
64.04371584699453
 20
-4.896174863387977
 30
0.0
 11
65.02732240437156
 21
-4.896174863387977
 31
0.0
  0
LINE
  5
D37
330
1F
100
AcDbEntity
  8
ceco.net 431 tecnical area
100
AcDbLine
 10
64.04371584699453
 20
-5.027322404371584
 30
0.0
 11
65.02732240437156
 21
-5.027322404371584
 31
0.0
  0
LINE
  5
D38
330
1F
100
AcDbEntity
  8
ceco.net 431 tecnical area
100
AcDbLine
 10
62.84153005464482
 20
-4.896174863387977
 30
0.0
 11
63.82513661202186
 21
-4.896174863387977
 31
0.0
  0
LINE
  5
D39
330
1F
100
AcDbEntity
  8
ceco.net 431 tecnical area
100
AcDbLine
 10
62.84153005464482
 20
-5.027322404371584
 30
0.0
 11
63.82513661202186
 21
-5.027322404371584
 31
0.0
  0
LINE
  5
D3A
330
1F
100
AcDbEntity
  8
ceco.net 431 tecnical area
100
AcDbLine
 10
61.63934426229509
 20
-4.896174863387978
 30
0.0
 11
62.62295081967214
 21
-4.896174863387977
 31
0.0
  0
LINE
  5
D3B
330
1F
100
AcDbEntity
  8
ceco.net 431 tecnical area
100
AcDbLine
 10
61.63934426229509
 20
-5.027322404371584
 30
0.0
 11
62.62295081967214
 21
-5.027322404371584
 31
0.0
  0
LINE
  5
D3C
330
1F
100
AcDbEntity
  8
ceco.net 431 tecnical area
100
AcDbLine
 10
60.43715846994535
 20
-4.896174863387977
 30
0.0
 11
61.42076502732243
 21
-4.896174863387978
 31
0.0
  0
LINE
  5
D3D
330
1F
100
AcDbEntity
  8
ceco.net 431 tecnical area
100
AcDbLine
 10
60.43715846994535
 20
-5.027322404371584
 30
0.0
 11
61.42076502732243
 21
-5.027322404371584
 31
0.0
  0
LINE
  5
D3E
330
1F
100
AcDbEntity
  8
ceco.net 431 tecnical area
100
AcDbLine
 10
59.69398907103825
 20
-4.371584699453551
 30
0.0
 11
59.69398907103825
 21
-4.896174863387978
 31
0.0
  0
LINE
  5
D3F
330
1F
100
AcDbEntity
  8
ceco.net 431 tecnical area
100
AcDbLine
 10
59.56284153005464
 20
-4.371584699453551
 30
0.0
 11
59.56284153005464
 21
-5.027322404371584
 31
0.0
  0
LINE
  5
D40
330
1F
100
AcDbEntity
  8
ceco.net 431 tecnical area
100
AcDbLine
 10
59.69398907103824
 20
-3.169398907103824
 30
0.0
 11
59.69398907103825
 21
-4.153005464480874
 31
0.0
  0
LINE
  5
D41
330
1F
100
AcDbEntity
  8
ceco.net 431 tecnical area
100
AcDbLine
 10
59.56284153005465
 20
-3.169398907103825
 30
0.0
 11
59.56284153005464
 21
-4.153005464480874
 31
0.0
  0
LINE
  5
D42
330
1F
100
AcDbEntity
  8
ceco.net 431 tecnical area
100
AcDbLine
 10
59.69398907103824
 20
-1.967213114754098
 30
0.0
 11
59.69398907103824
 21
-2.950819672131147
 31
0.0
  0
LINE
  5
D43
330
1F
100
AcDbEntity
  8
ceco.net 431 tecnical area
100
AcDbLine
 10
59.56284153005465
 20
-1.967213114754098
 30
0.0
 11
59.56284153005465
 21
-2.950819672131147
 31
0.0
  0
LINE
  5
D44
330
1F
100
AcDbEntity
  8
ceco.net 431 tecnical area
100
AcDbLine
 10
55.19125683060107
 20
-1.092896174863387
 30
0.0
 11
54.53551912568306
 21
-1.092896174863387
 31
0.0
  0
LINE
  5
D45
330
1F
100
AcDbEntity
  8
ceco.net 431 tecnical area
100
AcDbLine
 10
54.31693989071037
 20
-1.092896174863387
 30
0.0
 11
53.33333333333332
 21
-1.092896174863387
 31
0.0
  0
LINE
  5
D46
330
1F
100
AcDbEntity
  8
ceco.net 431 tecnical area
100
AcDbLine
 10
53.11475409836064
 20
-1.092896174863387
 30
0.0
 11
52.13114754098359
 21
-1.092896174863387
 31
0.0
  0
LINE
  5
D47
330
1F
100
AcDbEntity
  8
ceco.net 431 tecnical area
100
AcDbLine
 10
51.91256830601091
 20
-1.092896174863387
 30
0.0
 11
50.92896174863386
 21
-1.092896174863387
 31
0.0
  0
LINE
  5
D48
330
1F
100
AcDbEntity
  8
ceco.net 431 tecnical area
100
AcDbLine
 10
50.7103825136612
 20
-1.092896174863387
 30
0.0
 11
49.72677595628415
 21
-1.092896174863387
 31
0.0
  0
LINE
  5
D49
330
1F
100
AcDbEntity
  8
ceco.net 431 tecnical area
100
AcDbLine
 10
49.50819672131148
 20
-1.092896174863387
 30
0.0
 11
48.52459016393442
 21
-1.092896174863387
 31
0.0
  0
LINE
  5
D4A
330
1F
100
AcDbEntity
  8
ceco.net 431 tecnical area
100
AcDbLine
 10
48.30601092896174
 20
-1.092896174863387
 30
0.0
 11
47.32240437158469
 21
-1.092896174863387
 31
0.0
  0
LINE
  5
D4B
330
1F
100
AcDbEntity
  8
ceco.net 431 tecnical area
100
AcDbLine
 10
47.10382513661201
 20
-1.092896174863387
 30
0.0
 11
46.44808743169398
 21
-1.092896174863387
 31
0.0
  0
LINE
  5
D4C
330
1F
100
AcDbEntity
  8
ceco.net 431 tecnical area
100
AcDbLine
 10
55.19125683060107
 20
-1.74863387978142
 30
0.0
 11
55.06010928961749
 21
-1.74863387978142
 31
0.0
  0
LINE
  5
D4D
330
1F
100
AcDbEntity
  8
ceco.net 431 tecnical area
100
AcDbLine
 10
46.57923497267758
 20
-1.74863387978142
 30
0.0
 11
46.44808743169398
 21
-1.74863387978142
 31
0.0
  0
LINE
  5
D4E
330
1F
100
AcDbEntity
  8
ceco.net 431 tecnical area
100
AcDbLine
 10
55.19125683060107
 20
-1.967213114754098
 30
0.0
 11
55.06010928961749
 21
-1.967213114754097
 31
0.0
  0
LINE
  5
D4F
330
1F
100
AcDbEntity
  8
ceco.net 431 tecnical area
100
AcDbLine
 10
46.57923497267758
 20
-1.967213114754098
 30
0.0
 11
46.44808743169398
 21
-1.967213114754098
 31
0.0
  0
LINE
  5
D50
330
1F
100
AcDbEntity
  8
ceco.net 431 tecnical area
100
AcDbLine
 10
55.19125683060107
 20
-2.950819672131147
 30
0.0
 11
55.06010928961747
 21
-2.950819672131147
 31
0.0
  0
LINE
  5
D51
330
1F
100
AcDbEntity
  8
ceco.net 431 tecnical area
100
AcDbLine
 10
46.57923497267758
 20
-2.950819672131147
 30
0.0
 11
46.44808743169398
 21
-2.950819672131147
 31
0.0
  0
LINE
  5
D52
330
1F
100
AcDbEntity
  8
ceco.net 431 tecnical area
100
AcDbLine
 10
55.19125683060107
 20
-3.169398907103825
 30
0.0
 11
55.06010928961747
 21
-3.169398907103825
 31
0.0
  0
LINE
  5
D53
330
1F
100
AcDbEntity
  8
ceco.net 431 tecnical area
100
AcDbLine
 10
46.57923497267758
 20
-3.169398907103824
 30
0.0
 11
46.44808743169398
 21
-3.169398907103825
 31
0.0
  0
LINE
  5
D54
330
1F
100
AcDbEntity
  8
ceco.net 431 tecnical area
100
AcDbLine
 10
55.19125683060107
 20
-4.153005464480874
 30
0.0
 11
55.06010928961747
 21
-4.153005464480874
 31
0.0
  0
LINE
  5
D55
330
1F
100
AcDbEntity
  8
ceco.net 431 tecnical area
100
AcDbLine
 10
46.57923497267758
 20
-4.153005464480873
 30
0.0
 11
46.44808743169398
 21
-4.153005464480874
 31
0.0
  0
LINE
  5
D56
330
1F
100
AcDbEntity
  8
ceco.net 431 tecnical area
100
AcDbLine
 10
55.19125683060107
 20
-4.371584699453551
 30
0.0
 11
55.06010928961747
 21
-4.371584699453551
 31
0.0
  0
LINE
  5
D57
330
1F
100
AcDbEntity
  8
ceco.net 431 tecnical area
100
AcDbLine
 10
46.57923497267758
 20
-4.371584699453551
 30
0.0
 11
46.44808743169398
 21
-4.371584699453551
 31
0.0
  0
LINE
  5
D58
330
1F
100
AcDbEntity
  8
ceco.net 431 tecnical area
100
AcDbLine
 10
55.19125683060107
 20
-5.027322404371584
 30
0.0
 11
54.53551912568304
 21
-5.027322404371584
 31
0.0
  0
LINE
  5
D59
330
1F
100
AcDbEntity
  8
ceco.net 431 tecnical area
100
AcDbLine
 10
54.31693989071037
 20
-5.027322404371584
 30
0.0
 11
53.33333333333329
 21
-5.027322404371584
 31
0.0
  0
LINE
  5
D5A
330
1F
100
AcDbEntity
  8
ceco.net 431 tecnical area
100
AcDbLine
 10
53.11475409836063
 20
-5.027322404371584
 30
0.0
 11
52.13114754098358
 21
-5.027322404371584
 31
0.0
  0
LINE
  5
D5B
330
1F
100
AcDbEntity
  8
ceco.net 431 tecnical area
100
AcDbLine
 10
51.91256830601091
 20
-5.027322404371584
 30
0.0
 11
50.92896174863386
 21
-5.027322404371584
 31
0.0
  0
LINE
  5
D5C
330
1F
100
AcDbEntity
  8
ceco.net 431 tecnical area
100
AcDbLine
 10
50.71038251366119
 20
-5.027322404371584
 30
0.0
 11
49.72677595628416
 21
-5.027322404371584
 31
0.0
  0
LINE
  5
D5D
330
1F
100
AcDbEntity
  8
ceco.net 431 tecnical area
100
AcDbLine
 10
49.50819672131149
 20
-5.027322404371584
 30
0.0
 11
48.52459016393443
 21
-5.027322404371583
 31
0.0
  0
LINE
  5
D5E
330
1F
100
AcDbEntity
  8
ceco.net 431 tecnical area
100
AcDbLine
 10
48.30601092896175
 20
-5.027322404371583
 30
0.0
 11
47.32240437158471
 21
-5.027322404371583
 31
0.0
  0
LINE
  5
D5F
330
1F
100
AcDbEntity
  8
ceco.net 431 tecnical area
100
AcDbLine
 10
47.10382513661202
 20
-5.027322404371583
 30
0.0
 11
46.44808743169398
 21
-5.027322404371584
 31
0.0
  0
LINE
  5
D60
330
1F
100
AcDbEntity
  8
ceco.net 431 tecnical area
100
AcDbLine
 10
55.06010928961747
 20
-4.896174863387978
 30
0.0
 11
54.53551912568304
 21
-4.896174863387977
 31
0.0
  0
LINE
  5
D61
330
1F
100
AcDbEntity
  8
ceco.net 431 tecnical area
100
AcDbLine
 10
54.31693989071037
 20
-4.896174863387977
 30
0.0
 11
53.33333333333329
 21
-4.896174863387978
 31
0.0
  0
LINE
  5
D62
330
1F
100
AcDbEntity
  8
ceco.net 431 tecnical area
100
AcDbLine
 10
53.11475409836063
 20
-4.896174863387978
 30
0.0
 11
52.13114754098358
 21
-4.896174863387977
 31
0.0
  0
LINE
  5
D63
330
1F
100
AcDbEntity
  8
ceco.net 431 tecnical area
100
AcDbLine
 10
51.91256830601091
 20
-4.896174863387977
 30
0.0
 11
50.92896174863386
 21
-4.896174863387977
 31
0.0
  0
LINE
  5
D64
330
1F
100
AcDbEntity
  8
ceco.net 431 tecnical area
100
AcDbLine
 10
50.71038251366119
 20
-4.896174863387977
 30
0.0
 11
49.72677595628416
 21
-4.896174863387977
 31
0.0
  0
LINE
  5
D65
330
1F
100
AcDbEntity
  8
ceco.net 431 tecnical area
100
AcDbLine
 10
49.50819672131149
 20
-4.896174863387977
 30
0.0
 11
48.52459016393443
 21
-4.896174863387978
 31
0.0
  0
LINE
  5
D66
330
1F
100
AcDbEntity
  8
ceco.net 431 tecnical area
100
AcDbLine
 10
48.30601092896175
 20
-4.896174863387978
 30
0.0
 11
47.32240437158469
 21
-4.896174863387978
 31
0.0
  0
LINE
  5
D67
330
1F
100
AcDbEntity
  8
ceco.net 431 tecnical area
100
AcDbLine
 10
47.10382513661201
 20
-4.896174863387978
 30
0.0
 11
46.57923497267758
 21
-4.896174863387978
 31
0.0
  0
LINE
  5
D68
330
1F
100
AcDbEntity
  8
ceco.net 431 tecnical area
100
AcDbLine
 10
55.06010928961749
 20
-1.224043715846994
 30
0.0
 11
54.53551912568306
 21
-1.224043715846994
 31
0.0
  0
LINE
  5
D69
330
1F
100
AcDbEntity
  8
ceco.net 431 tecnical area
100
AcDbLine
 10
54.31693989071038
 20
-1.224043715846994
 30
0.0
 11
53.33333333333332
 21
-1.224043715846994
 31
0.0
  0
LINE
  5
D6A
330
1F
100
AcDbEntity
  8
ceco.net 431 tecnical area
100
AcDbLine
 10
53.11475409836064
 20
-1.224043715846994
 30
0.0
 11
52.13114754098359
 21
-1.224043715846994
 31
0.0
  0
LINE
  5
D6B
330
1F
100
AcDbEntity
  8
ceco.net 431 tecnical area
100
AcDbLine
 10
51.91256830601092
 20
-1.224043715846994
 30
0.0
 11
50.92896174863387
 21
-1.224043715846994
 31
0.0
  0
LINE
  5
D6C
330
1F
100
AcDbEntity
  8
ceco.net 431 tecnical area
100
AcDbLine
 10
50.71038251366121
 20
-1.224043715846994
 30
0.0
 11
49.72677595628415
 21
-1.224043715846995
 31
0.0
  0
LINE
  5
D6D
330
1F
100
AcDbEntity
  8
ceco.net 431 tecnical area
100
AcDbLine
 10
49.50819672131148
 20
-1.224043715846995
 30
0.0
 11
48.52459016393442
 21
-1.224043715846994
 31
0.0
  0
LINE
  5
D6E
330
1F
100
AcDbEntity
  8
ceco.net 431 tecnical area
100
AcDbLine
 10
48.30601092896175
 20
-1.224043715846994
 30
0.0
 11
47.32240437158469
 21
-1.224043715846994
 31
0.0
  0
LINE
  5
D6F
330
1F
100
AcDbEntity
  8
ceco.net 431 tecnical area
100
AcDbLine
 10
47.10382513661201
 20
-1.224043715846994
 30
0.0
 11
46.57923497267758
 21
-1.224043715846994
 31
0.0
  0
LINE
  5
D70
330
1F
100
AcDbEntity
  8
ceco.net 431 tecnical area
100
AcDbLine
 10
55.19125683060108
 20
-1.092896174863387
 30
0.0
 11
55.19125683060107
 21
-1.74863387978142
 31
0.0
  0
LINE
  5
D71
330
1F
100
AcDbEntity
  8
ceco.net 431 tecnical area
100
AcDbLine
 10
55.19125683060107
 20
-1.967213114754098
 30
0.0
 11
55.19125683060107
 21
-2.950819672131147
 31
0.0
  0
LINE
  5
D72
330
1F
100
AcDbEntity
  8
ceco.net 431 tecnical area
100
AcDbLine
 10
55.19125683060107
 20
-3.169398907103825
 30
0.0
 11
55.19125683060108
 21
-4.153005464480874
 31
0.0
  0
LINE
  5
D73
330
1F
100
AcDbEntity
  8
ceco.net 431 tecnical area
100
AcDbLine
 10
55.19125683060108
 20
-4.371584699453551
 30
0.0
 11
55.19125683060108
 21
-5.027322404371584
 31
0.0
  0
LINE
  5
D74
330
1F
100
AcDbEntity
  8
ceco.net 431 tecnical area
100
AcDbLine
 10
54.53551912568305
 20
-1.092896174863387
 30
0.0
 11
54.53551912568305
 21
-1.224043715846994
 31
0.0
  0
LINE
  5
D75
330
1F
100
AcDbEntity
  8
ceco.net 431 tecnical area
100
AcDbLine
 10
54.53551912568304
 20
-4.896174863387977
 30
0.0
 11
54.53551912568304
 21
-5.027322404371584
 31
0.0
  0
LINE
  5
D76
330
1F
100
AcDbEntity
  8
ceco.net 431 tecnical area
100
AcDbLine
 10
54.31693989071037
 20
-1.092896174863387
 30
0.0
 11
54.31693989071037
 21
-1.224043715846994
 31
0.0
  0
LINE
  5
D77
330
1F
100
AcDbEntity
  8
ceco.net 431 tecnical area
100
AcDbLine
 10
54.31693989071037
 20
-4.896174863387977
 30
0.0
 11
54.31693989071037
 21
-5.027322404371584
 31
0.0
  0
LINE
  5
D78
330
1F
100
AcDbEntity
  8
ceco.net 431 tecnical area
100
AcDbLine
 10
53.33333333333332
 20
-1.092896174863387
 30
0.0
 11
53.33333333333331
 21
-1.224043715846994
 31
0.0
  0
LINE
  5
D79
330
1F
100
AcDbEntity
  8
ceco.net 431 tecnical area
100
AcDbLine
 10
53.33333333333331
 20
-4.896174863387977
 30
0.0
 11
53.33333333333331
 21
-5.027322404371584
 31
0.0
  0
LINE
  5
D7A
330
1F
100
AcDbEntity
  8
ceco.net 431 tecnical area
100
AcDbLine
 10
53.11475409836064
 20
-1.092896174863387
 30
0.0
 11
53.11475409836064
 21
-1.224043715846994
 31
0.0
  0
LINE
  5
D7B
330
1F
100
AcDbEntity
  8
ceco.net 431 tecnical area
100
AcDbLine
 10
53.11475409836064
 20
-4.896174863387977
 30
0.0
 11
53.11475409836064
 21
-5.027322404371584
 31
0.0
  0
LINE
  5
D7C
330
1F
100
AcDbEntity
  8
ceco.net 431 tecnical area
100
AcDbLine
 10
52.13114754098359
 20
-1.092896174863387
 30
0.0
 11
52.13114754098359
 21
-1.224043715846994
 31
0.0
  0
LINE
  5
D7D
330
1F
100
AcDbEntity
  8
ceco.net 431 tecnical area
100
AcDbLine
 10
52.13114754098358
 20
-4.896174863387977
 30
0.0
 11
52.13114754098359
 21
-5.027322404371584
 31
0.0
  0
LINE
  5
D7E
330
1F
100
AcDbEntity
  8
ceco.net 431 tecnical area
100
AcDbLine
 10
51.91256830601091
 20
-1.092896174863387
 30
0.0
 11
51.91256830601091
 21
-1.224043715846994
 31
0.0
  0
LINE
  5
D7F
330
1F
100
AcDbEntity
  8
ceco.net 431 tecnical area
100
AcDbLine
 10
51.91256830601091
 20
-4.896174863387977
 30
0.0
 11
51.91256830601091
 21
-5.027322404371584
 31
0.0
  0
LINE
  5
D80
330
1F
100
AcDbEntity
  8
ceco.net 431 tecnical area
100
AcDbLine
 10
50.92896174863387
 20
-1.092896174863387
 30
0.0
 11
50.92896174863387
 21
-1.224043715846994
 31
0.0
  0
LINE
  5
D81
330
1F
100
AcDbEntity
  8
ceco.net 431 tecnical area
100
AcDbLine
 10
50.92896174863385
 20
-4.896174863387977
 30
0.0
 11
50.92896174863385
 21
-5.027322404371584
 31
0.0
  0
LINE
  5
D82
330
1F
100
AcDbEntity
  8
ceco.net 431 tecnical area
100
AcDbLine
 10
55.06010928961749
 20
-1.224043715846994
 30
0.0
 11
55.06010928961749
 21
-1.74863387978142
 31
0.0
  0
LINE
  5
D83
330
1F
100
AcDbEntity
  8
ceco.net 431 tecnical area
100
AcDbLine
 10
55.06010928961749
 20
-1.967213114754098
 30
0.0
 11
55.06010928961749
 21
-2.950819672131147
 31
0.0
  0
LINE
  5
D84
330
1F
100
AcDbEntity
  8
ceco.net 431 tecnical area
100
AcDbLine
 10
55.06010928961749
 20
-3.169398907103824
 30
0.0
 11
55.06010928961747
 21
-4.153005464480874
 31
0.0
  0
LINE
  5
D85
330
1F
100
AcDbEntity
  8
ceco.net 431 tecnical area
100
AcDbLine
 10
55.06010928961747
 20
-4.371584699453551
 30
0.0
 11
55.06010928961747
 21
-4.896174863387978
 31
0.0
  0
LINE
  5
D86
330
1F
100
AcDbEntity
  8
ceco.net 431 tecnical area
100
AcDbLine
 10
46.44808743169398
 20
-1.092896174863387
 30
0.0
 11
46.44808743169398
 21
-1.74863387978142
 31
0.0
  0
LINE
  5
D87
330
1F
100
AcDbEntity
  8
ceco.net 431 tecnical area
100
AcDbLine
 10
46.44808743169398
 20
-1.967213114754098
 30
0.0
 11
46.44808743169397
 21
-2.950819672131147
 31
0.0
  0
LINE
  5
D88
330
1F
100
AcDbEntity
  8
ceco.net 431 tecnical area
100
AcDbLine
 10
46.44808743169397
 20
-3.169398907103825
 30
0.0
 11
46.44808743169398
 21
-4.153005464480874
 31
0.0
  0
LINE
  5
D89
330
1F
100
AcDbEntity
  8
ceco.net 431 tecnical area
100
AcDbLine
 10
46.44808743169398
 20
-4.371584699453551
 30
0.0
 11
46.44808743169398
 21
-5.027322404371584
 31
0.0
  0
LINE
  5
D8A
330
1F
100
AcDbEntity
  8
ceco.net 431 tecnical area
100
AcDbLine
 10
47.10382513661201
 20
-1.092896174863387
 30
0.0
 11
47.10382513661201
 21
-1.224043715846994
 31
0.0
  0
LINE
  5
D8B
330
1F
100
AcDbEntity
  8
ceco.net 431 tecnical area
100
AcDbLine
 10
47.10382513661202
 20
-4.896174863387977
 30
0.0
 11
47.10382513661202
 21
-5.027322404371584
 31
0.0
  0
LINE
  5
D8C
330
1F
100
AcDbEntity
  8
ceco.net 431 tecnical area
100
AcDbLine
 10
47.32240437158469
 20
-1.092896174863387
 30
0.0
 11
47.32240437158469
 21
-1.224043715846994
 31
0.0
  0
LINE
  5
D8D
330
1F
100
AcDbEntity
  8
ceco.net 431 tecnical area
100
AcDbLine
 10
47.32240437158471
 20
-4.896174863387977
 30
0.0
 11
47.32240437158471
 21
-5.027322404371584
 31
0.0
  0
LINE
  5
D8E
330
1F
100
AcDbEntity
  8
ceco.net 431 tecnical area
100
AcDbLine
 10
48.30601092896174
 20
-1.092896174863387
 30
0.0
 11
48.30601092896176
 21
-1.224043715846994
 31
0.0
  0
LINE
  5
D8F
330
1F
100
AcDbEntity
  8
ceco.net 431 tecnical area
100
AcDbLine
 10
48.30601092896176
 20
-4.896174863387977
 30
0.0
 11
48.30601092896175
 21
-5.027322404371584
 31
0.0
  0
LINE
  5
D90
330
1F
100
AcDbEntity
  8
ceco.net 431 tecnical area
100
AcDbLine
 10
48.52459016393442
 20
-1.092896174863387
 30
0.0
 11
48.52459016393442
 21
-1.224043715846994
 31
0.0
  0
LINE
  5
D91
330
1F
100
AcDbEntity
  8
ceco.net 431 tecnical area
100
AcDbLine
 10
48.52459016393443
 20
-4.896174863387977
 30
0.0
 11
48.52459016393443
 21
-5.027322404371584
 31
0.0
  0
LINE
  5
D92
330
1F
100
AcDbEntity
  8
ceco.net 431 tecnical area
100
AcDbLine
 10
49.50819672131148
 20
-1.092896174863387
 30
0.0
 11
49.50819672131148
 21
-1.224043715846994
 31
0.0
  0
LINE
  5
D93
330
1F
100
AcDbEntity
  8
ceco.net 431 tecnical area
100
AcDbLine
 10
49.50819672131149
 20
-4.896174863387977
 30
0.0
 11
49.50819672131148
 21
-5.027322404371584
 31
0.0
  0
LINE
  5
D94
330
1F
100
AcDbEntity
  8
ceco.net 431 tecnical area
100
AcDbLine
 10
49.72677595628415
 20
-1.092896174863387
 30
0.0
 11
49.72677595628416
 21
-1.224043715846994
 31
0.0
  0
LINE
  5
D95
330
1F
100
AcDbEntity
  8
ceco.net 431 tecnical area
100
AcDbLine
 10
49.72677595628416
 20
-4.896174863387977
 30
0.0
 11
49.72677595628416
 21
-5.027322404371584
 31
0.0
  0
LINE
  5
D96
330
1F
100
AcDbEntity
  8
ceco.net 431 tecnical area
100
AcDbLine
 10
50.7103825136612
 20
-1.092896174863387
 30
0.0
 11
50.71038251366121
 21
-1.224043715846994
 31
0.0
  0
LINE
  5
D97
330
1F
100
AcDbEntity
  8
ceco.net 431 tecnical area
100
AcDbLine
 10
50.7103825136612
 20
-4.896174863387977
 30
0.0
 11
50.71038251366119
 21
-5.027322404371584
 31
0.0
  0
LINE
  5
D98
330
1F
100
AcDbEntity
  8
ceco.net 431 tecnical area
100
AcDbLine
 10
46.57923497267758
 20
-1.224043715846994
 30
0.0
 11
46.57923497267758
 21
-1.74863387978142
 31
0.0
  0
LINE
  5
D99
330
1F
100
AcDbEntity
  8
ceco.net 431 tecnical area
100
AcDbLine
 10
46.57923497267758
 20
-1.967213114754098
 30
0.0
 11
46.57923497267757
 21
-2.950819672131147
 31
0.0
  0
LINE
  5
D9A
330
1F
100
AcDbEntity
  8
ceco.net 431 tecnical area
100
AcDbLine
 10
46.57923497267757
 20
-3.169398907103825
 30
0.0
 11
46.57923497267758
 21
-4.153005464480874
 31
0.0
  0
LINE
  5
D9B
330
1F
100
AcDbEntity
  8
ceco.net 431 tecnical area
100
AcDbLine
 10
46.57923497267758
 20
-4.371584699453551
 30
0.0
 11
46.57923497267759
 21
-4.896174863387978
 31
0.0
  0
LINE
  5
D9C
330
1F
100
AcDbEntity
  8
ceco.net 431 FIFA futbol soccer field
100
AcDbLine
 10
57.44262295081966
 20
36.8372253889246
 30
0.0
 11
57.44262295081966
 21
0.1311475409836065
 31
0.0
  0
LINE
  5
D9D
330
1F
100
AcDbEntity
  8
ceco.net 431 FIFA futbol soccer field
100
AcDbLine
 10
57.31147540983606
 20
36.8372253889246
 30
0.0
 11
57.31147540983606
 21
0.1311475409836065
 31
0.0
  0
ARC
  5
D9E
330
1F
100
AcDbEntity
  8
ceco.net 431 FIFA futbol soccer field
100
AcDbCircle
 10
57.37704918032786
 20
37.15846994535518
 30
0.0
 40
0.3278688524590164
100
AcDbArc
 50
281.5369590328172
 51
78.46304096718404
  0
VIEWPORT
  5
B23
330
B1C
100
AcDbEntity
 67
     1
  8
0
100
AcDbViewport
 10
5.64708379309947
 20
3.935416552025502
 30
0.0
 40
19.74035425840224
 41
8.746133096049151
 68
     1
 69
     1
 12
5.64708379309947
 22
3.935416552025502
 13
0.0
 23
0.0
 14
10.0
 24
10.0
 15
10.0
 25
10.0
 16
0.0
 26
0.0
 36
1.0
 17
0.0
 27
0.0
 37
0.0
 42
50.0
 43
0.0
 44
0.0
 45
8.746133096049151
 50
0.0
 51
0.0
 72
   100
 90
    32800
  1

281
     0
 71
     1
 74
     0
110
0.0
120
0.0
130
0.0
111
1.0
121
0.0
131
0.0
112
0.0
122
1.0
132
0.0
 79
     0
146
0.0
  0
VIEWPORT
  5
B25
330
B1C
100
AcDbEntity
 67
     1
  8
0
100
AcDbViewport
 10
5.64708347395649
 20
3.935416533252385
 30
0.0
 40
9.035333558330385
 41
6.296666453203816
 68
     2
 69
     2
 12
6.0
 22
4.5
 13
0.0
 23
0.0
 14
0.5
 24
0.5
 15
0.5
 25
0.5
 16
0.0
 26
0.0
 36
1.0
 17
0.0
 27
0.0
 37
0.0
 42
50.0
 43
0.0
 44
0.0
 45
9.091836734693877
 50
0.0
 51
0.0
 72
   100
 90
    33376
  1

281
     0
 71
     1
 74
     0
110
0.0
120
0.0
130
0.0
111
1.0
121
0.0
131
0.0
112
0.0
122
1.0
132
0.0
 79
     0
146
0.0
  0
ENDSEC
  0
SECTION
  2
OBJECTS
  0
DICTIONARY
  5
C
330
0
100
AcDbDictionary
281
     1
  3
ACAD_GROUP
350
D
  3
ACAD_LAYOUT
350
1A
  3
ACAD_MLINESTYLE
350
17
  3
ACAD_PLOTSETTINGS
350
19
  3
ACAD_PLOTSTYLENAME
350
E
  3
AcDbVariableDictionary
350
114
  3
DWGPROPS
350
AF4
  0
DICTIONARY
  5
B2B
330
B2A
100
AcDbDictionary
280
     1
281
     1
  3
ACAD_XREC_ROUNDTRIP
360
B2C
  0
DICTIONARY
  5
B2E
330
B2D
100
AcDbDictionary
280
     1
281
     1
  3
ACAD_XREC_ROUNDTRIP
360
B2F
  0
DICTIONARY
  5
B31
330
B30
100
AcDbDictionary
280
     1
281
     1
  3
ACAD_XREC_ROUNDTRIP
360
B32
  0
DICTIONARY
  5
D
102
{ACAD_REACTORS
330
C
102
}
330
C
100
AcDbDictionary
281
     1
  0
DICTIONARY
  5
1A
102
{ACAD_REACTORS
330
C
102
}
330
C
100
AcDbDictionary
281
     1
  3
Model
350
22
  3
www.ceco.net
350
B1D
  0
DICTIONARY
  5
17
102
{ACAD_REACTORS
330
C
102
}
330
C
100
AcDbDictionary
281
     1
  3
Standard
350
18
  0
DICTIONARY
  5
19
102
{ACAD_REACTORS
330
C
102
}
330
C
100
AcDbDictionary
281
     1
  0
ACDBDICTIONARYWDFLT
  5
E
102
{ACAD_REACTORS
330
C
102
}
330
C
100
AcDbDictionary
281
     1
  3
Normal
350
F
100
AcDbDictionaryWithDefault
340
F
  0
DICTIONARY
  5
114
102
{ACAD_REACTORS
330
C
102
}
330
C
100
AcDbDictionary
281
     1
  3
DIMASSOC
350
116
  3
HIDETEXT
350
115
  0
XRECORD
  5
AF4
102
{ACAD_REACTORS
330
C
102
}
330
C
100
AcDbXrecord
280
     1
  1
DWGPROPS COOKIE
  2
Ceco.NET-Trees-and-Plants - T - xx . 80 . dwg
  3

  4
ceco.net
  6

  7

  8
Peter
  9

300
=
301
=
302
=
303
=
304
=
305
=
306
=
307
=
308
=
309
=
 40
0.0133834143518519
 41
2455079.813234954
 42
2455841.410778761
  1

 90
        0
  0
XRECORD
  5
B2C
102
{ACAD_REACTORS
330
B2B
102
}
330
B2B
100
AcDbXrecord
280
     1
102
MATERIAL
340
0
  0
XRECORD
  5
B2F
102
{ACAD_REACTORS
330
B2E
102
}
330
B2E
100
AcDbXrecord
280
     1
102
MATERIAL
340
0
  0
XRECORD
  5
B32
102
{ACAD_REACTORS
330
B31
102
}
330
B31
100
AcDbXrecord
280
     1
102
MATERIAL
340
0
  0
LAYOUT
  5
22
102
{ACAD_REACTORS
330
1A
102
}
330
1A
100
AcDbPlotSettings
  1

  2
Microsoft Office Document Image Writer
  4

  6

 40
0.0
 41
0.0
 42
0.0
 43
0.0
 44
0.0
 45
0.0
 46
0.0
 47
0.0
 48
0.0
 49
0.0
140
0.0
141
0.0
142
1.0
143
1.0
 70
  1712
 72
     0
 73
     0
 74
     0
  7

 75
     0
147
1.0
148
0.0
149
0.0
100
AcDbLayout
  1
Model
 70
     1
 71
     0
 10
0.0
 20
0.0
 11
12.0
 21
9.0
 12
0.0
 22
0.0
 32
0.0
 14
0.0
 24
0.0
 34
0.0
 15
0.0
 25
0.0
 35
0.0
146
0.0
 13
0.0
 23
0.0
 33
0.0
 16
1.0
 26
0.0
 36
0.0
 17
0.0
 27
1.0
 37
0.0
 76
     0
330
1F
  0
LAYOUT
  5
B1D
102
{ACAD_REACTORS
330
1A
102
}
330
1A
100
AcDbPlotSettings
  1

  2
Brother HL-L2360D series Printer
  4
A4
  6

 40
5.027083396911621
 41
5.027085304260253
 42
5.027084350585937
 43
5.027069091796875
 44
209.9733276367187
 45
296.9259948730469
 46
0.0
 47
0.0
 48
0.0
 49
0.0
140
0.0
141
0.0
142
1.0
143
1.0
 70
   688
 72
     0
 73
     1
 74
     5
  7

 75
    16
147
1.0
148
0.0
149
0.0
100
AcDbLayout
  1
www.ceco.net
 70
     1
 71
     1
 10
-0.1979161059762549
 20
-0.1979166691697489
 11
11.49208369217519
 21
8.068749773220753
 12
0.0
 22
0.0
 32
0.0
 14
1.129416694791297
 24
0.7870833066504775
 34
0.0
 15
10.16475025312168
 25
7.083749759854294
 35
0.0
146
0.0
 13
0.0
 23
0.0
 33
0.0
 16
1.0
 26
0.0
 36
0.0
 17
0.0
 27
1.0
 37
0.0
 76
     0
330
B1C
331
B23
  0
MLINESTYLE
  5
18
102
{ACAD_REACTORS
330
17
102
}
330
17
100
AcDbMlineStyle
  2
STANDARD
 70
     0
  3

 62
   256
 51
90.0
 52
90.0
 71
     2
 49
0.5
 62
   256
  6
BYLAYER
 49
-0.5
 62
   256
  6
BYLAYER
  0
ACDBPLACEHOLDER
  5
F
102
{ACAD_REACTORS
330
E
102
}
330
E
  0
DICTIONARYVAR
  5
116
102
{ACAD_REACTORS
330
114
102
}
330
114
100
DictionaryVariables
280
     0
  1
2
  0
DICTIONARYVAR
  5
115
102
{ACAD_REACTORS
330
114
102
}
330
114
100
DictionaryVariables
280
     0
  1
1
  0
ENDSEC
  0
EOF
